<svg id="Capa_1" enable-background="new 0 0 512 512" height="512" viewBox="0 0 512 512" width="512" xmlns="http://www.w3.org/2000/svg" xmlns:xlink="http://www.w3.org/1999/xlink"><linearGradient id="SVGID_1_" gradientUnits="userSpaceOnUse" x1="180.506" x2="180.506" y1="361" y2="0"><stop offset="0" stop-color="#a93aff"/><stop offset="1" stop-color="#ff81ff"/></linearGradient><linearGradient id="SVGID_2_" gradientUnits="userSpaceOnUse" x1="256.111" x2="256.111" y1="512" y2="0"><stop offset="0" stop-color="#ffbef9"/><stop offset="1" stop-color="#fff1ff"/></linearGradient><g><g><g><path d="m256.006 151c-57.891 0-105 47.109-105 105s47.109 105 105 105 105-47.109 105-105-47.109-105-105-105zm-76-61c0-49.629-40.371-90-90-90s-90 40.371-90 90 40.371 90 90 90 90-40.371 90-90z" fill="url(#SVGID_1_)"/></g></g><g><g><path d="m75.006 105h30c8.291 0 15-6.709 15-15s-6.709-15-15-15h-30c-8.291 0-15 6.709-15 15s6.709 15 15 15zm-24.664 242.23c-3.398-7.603-12.246-10.942-19.805-7.632-7.559 3.354-10.986 12.217-7.617 19.79 4.307 9.741 9.287 19.248 14.736 28.271 4.268 7.046 13.46 9.352 20.596 5.054 7.09-4.292 9.346-13.521 5.068-20.61-4.834-7.968-9.169-16.274-12.978-24.873zm143.877 125.142c-9.053-2.593-17.9-5.757-26.455-9.434-7.559-3.267-16.436.22-19.688 7.866-3.281 7.617.234 16.436 7.852 19.702 6.01 2.58 27.971 11.279 34.16 11.279 6.533 0 12.539-4.292 14.414-10.869 2.285-7.968-2.314-16.273-10.283-18.544zm-74.912-37.793c-7.441-5.698-14.502-11.851-21.152-18.413-5.918-5.815-15.381-5.742-21.211.132-5.83 5.903-5.771 15.396.117 21.226 7.529 7.441 15.586 14.414 24.023 20.874 6.615 5.05 16.005 3.767 21.035-2.783 5.01-6.578 3.78-15.997-2.812-21.036zm-86.137-141.094c-1.606-9.074-2.577-18.963-2.93-27.891-.381-8.276-7.617-15.22-15.615-14.355-8.291.337-14.707 7.339-14.385 15.615.452 10.336 1.565 21.238 3.34 31.729 1.289 7.31 7.617 12.451 14.766 12.451 9.394 0 16.395-8.433 14.824-17.549zm188.676-275.507c-1.67-8.145-9.756-13.271-17.725-11.66-10.342 2.139-20.713 4.966-30.762 8.408-7.822 2.681-12.012 11.206-9.316 19.058 2.603 7.682 11.004 12.035 19.043 9.331 8.789-3.003 17.813-5.493 27.129-7.412 8.086-1.685 13.33-9.61 11.631-17.725zm250.635 176.718c2.258 8.101 10.687 12.59 18.486 10.386 7.998-2.241 12.627-10.518 10.4-18.501-2.842-10.093-6.387-20.215-10.576-30.073-3.223-7.632-12.129-11.162-19.658-7.954-7.617 3.237-11.191 12.041-7.939 19.673 3.603 8.54 6.738 17.373 9.287 26.469zm-37.5-74.956c5.091 6.653 14.546 7.812 21.006 2.827 6.592-5.024 7.881-14.429 2.842-21.021-6.445-8.452-13.418-16.479-20.859-24.053-5.83-5.918-15.322-5.962-21.211-.176-5.918 5.801-5.977 15.308-.176 21.211 6.562 6.666 12.714 13.756 18.398 21.212zm-416.924 101.514c8.194 1.707 16.082-3.534 17.783-11.572 1.963-9.229 4.482-18.267 7.529-27.085 2.695-7.837-1.436-16.377-9.287-19.087-7.822-2.651-16.377 1.465-19.072 9.272-3.457 9.99-6.328 20.229-8.525 30.688-1.7 8.116 3.457 16.07 11.572 17.784zm468.603 102.759c-7.676-2.827-16.377 1.143-19.248 8.906-3.223 8.833-7.002 17.446-11.279 25.767-3.809 7.368-.908 16.421 6.475 20.2 7.232 3.761 16.346.987 20.186-6.46 4.863-9.434 9.111-19.16 12.803-29.165 2.841-7.779-1.144-16.392-8.937-19.248zm-208.945 156.928c-10.192.999-21.115 1.293-28.477.981-8.115 0-14.766 6.46-15 14.604-.205 8.276 6.328 15.176 14.59 15.396 3.031-.042 14.161.582 31.816-1.128 8.232-.806 14.268-8.13 13.477-16.377s-8.203-14.077-16.406-13.476zm167.9-77.255c-6.182-5.479-15.674-4.951-21.152 1.304-6.24 7.017-12.891 13.667-19.922 19.893-6.211 5.493-6.797 14.971-1.289 21.182 5.513 6.223 14.99 6.753 21.152 1.289 7.969-7.046 15.498-14.546 22.5-22.5 5.508-6.198 4.922-15.675-1.289-21.168zm66.274-154.292c-.234-8.291-7.354-14.839-15.41-14.59-8.291.234-14.824 7.134-14.59 15.41-.035 3.065.614 12.31-.967 28.081-.791 8.247 5.244 15.586 13.477 16.392 8.644.763 15.625-5.51 16.406-13.462 1.739-18.193 1.046-28.814 1.084-31.831zm-123.754-211.363c-9.053-5.508-18.457-10.459-28.154-14.81-7.529-3.384-16.436-.015-19.834 7.544s-.029 16.436 7.529 19.819c8.584 3.853 16.875 8.218 24.873 13.081 7.055 4.292 16.302 2.065 20.596-5.024 4.306-7.075 2.08-16.303-5.01-20.61zm-88.945-34.504c-10.4-1.787-20.977-2.944-31.699-3.428-9.463-1.025-15.293 6.064-15.645 14.312-.381 8.276 6.006 15.278 14.297 15.659 9.434.425 18.779 1.436 27.949 3.018 8.459 1.41 15.977-4.315 17.344-12.231 1.406-8.175-4.073-15.924-12.246-17.33zm59.033 452.922c-8.291 4.248-16.875 7.998-25.752 11.191-7.793 2.813-11.836 11.396-9.023 19.189 2.878 7.915 11.539 11.804 19.219 9.023 9.902-3.574 19.746-7.837 29.209-12.686 7.383-3.779 10.313-12.817 6.533-20.186-3.78-7.395-12.891-10.237-20.186-6.531zm-72.217-215.449h-15v-15c0-8.291-6.709-15-15-15s-15 6.709-15 15v15h-15c-8.291 0-15 6.709-15 15s6.709 15 15 15h15v15c0 8.291 6.709 15 15 15s15-6.709 15-15v-15h15c8.291 0 15-6.709 15-15s-6.709-15-15-15z" fill="url(#SVGID_2_)"/></g></g></g></svg>