<svg id="bold" enable-background="new 0 0 32 32" height="512" viewBox="0 0 32 32" width="512" xmlns="http://www.w3.org/2000/svg"><path d="m26 32h-20c-3.314 0-6-2.686-6-6v-20c0-3.314 2.686-6 6-6h20c3.314 0 6 2.686 6 6v20c0 3.314-2.686 6-6 6z" fill="#fff9dd"/><path d="m13.333 8c-2.941 0-5.333 2.393-5.333 5.333s2.393 5.333 5.334 5.333 5.334-2.393 5.334-5.333-2.394-5.333-5.335-5.333zm0 6.667c-.735 0-1.333-.598-1.333-1.333s.598-1.334 1.333-1.334 1.333.598 1.333 1.333-.597 1.334-1.333 1.334z" fill="#ffd200"/><path d="m20.663 14.013c-.009 0-.018 0-.027-.001-.368-.015-.654-.325-.639-.693.004-.095.003-.19.003-.286 0-1.49-.438-2.932-1.201-3.954-.22-.295-.16-.713.135-.933.296-.221.713-.159.933.135.945 1.267 1.466 2.954 1.466 4.752 0 .114 0 .227-.005.34-.014.359-.309.64-.665.64z" fill="#ffe777"/><path d="m23.328 14c-.013 0-.025 0-.038-.001-.368-.021-.649-.335-.628-.703.005-.092.005-.184.005-.276 0-1.48-.218-2.912-.632-4.141-.118-.349.07-.727.419-.844.35-.118.727.071.844.419.46 1.364.702 2.943.702 4.566 0 .117 0 .234-.007.351-.019.355-.314.629-.665.629z" fill="#ffe777"/><path d="m21.334 16.667c0-.735-.598-1.333-1.333-1.333s-1.333.598-1.333 1.333c0 .524.307.975.748 1.192l-.839 2.656-1.243.829v-2.684c-1.113.84-2.5 1.34-4 1.34s-2.887-.5-4-1.34v3.507c0 1.013.82 1.833 1.833 1.833h4.333c.871 0 1.596-.607 1.783-1.421l1.995-1.33c.095-.063.165-.157.2-.265l.968-3.066c.515-.184.888-.673.888-1.251zm-6.667 6h-2.667c-.368 0-.667-.299-.667-.667s.299-.667.667-.667h2.667c.368 0 .667.299.667.667-.001.368-.299.667-.667.667z" fill="#ffd200"/></svg>