<svg id="bold" enable-background="new 0 0 32 32" height="512" viewBox="0 0 32 32" width="512" xmlns="http://www.w3.org/2000/svg"><path d="m26 32h-20c-3.314 0-6-2.686-6-6v-20c0-3.314 2.686-6 6-6h20c3.314 0 6 2.686 6 6v20c0 3.314-2.686 6-6 6z" fill="#fff9dd"/><path d="m22 20.167h-.686c-.041-.166-.161-.304-.329-.358-1.281-.409-2.69-.409-3.972 0-.168.054-.288.192-.329.358h-1.371c-.041-.166-.161-.304-.329-.358-1.281-.409-2.69-.409-3.972 0-.168.054-.288.192-.329.358h-.683c-.369 0-.667.299-.667.667s.298.666.667.666h.667v.134c0 .822.607 1.515 1.443 1.648l1.222.195c.094.015.188.022.282.022.415 0 .818-.146 1.135-.417.372-.317.585-.774.585-1.254v-.328h1.333v.329c0 .48.213.937.585 1.254.318.271.72.417 1.135.417.094 0 .188-.007.282-.022l1.222-.195c.836-.133 1.443-.826 1.443-1.648v-.135h.666c.369 0 .667-.299.667-.667s-.298-.666-.667-.666z" fill="#ffe777"/><path d="m19.333 13.078v-.955c0-.635-.32-1.216-.857-1.554-.537-.339-1.198-.377-1.77-.101l-.206.059c0-.566-.46-1.027-1.025-1.027h-.975c-1.011 0-1.833.824-1.833 1.837v1.741c-2.753.422-4.667 1.346-4.667 2.422 0 1.473 3.582 2.667 8 2.667s8-1.194 8-2.667c0-1.076-1.914-2-4.667-2.422z" fill="#ffd200"/></svg>