<svg id="bold" enable-background="new 0 0 32 32" height="512" viewBox="0 0 32 32" width="512" xmlns="http://www.w3.org/2000/svg"><path d="m26 32h-20c-3.314 0-6-2.686-6-6v-20c0-3.314 2.686-6 6-6h20c3.314 0 6 2.686 6 6v20c0 3.314-2.686 6-6 6z" fill="#e3f8fa"/><g fill="#8ce1eb"><path d="m16.5 17.667h-.667c-.092 0-.167.075-.167.167v2.333c0 .092.075.167.167.167h.667c.092 0 .167-.075.167-.167v-2.333c0-.092-.075-.167-.167-.167z"/><path d="m12.333 17.667h-.667c-.092 0-.167.075-.167.167v2.333c0 .092.075.167.167.167h.667c.092 0 .167-.075.167-.167v-2.333c0-.092-.075-.167-.167-.167z"/><path d="m14.167 11.667h-.667c-.092 0-.167.075-.167.167v2.333c0 .092.075.167.167.167h.667c.092 0 .167-.075.167-.167v-2.333c-.001-.092-.076-.167-.167-.167z"/><path d="m18.5 11.667h-.667c-.092 0-.167.075-.167.167v2.333c0 .092.075.167.167.167h.667c.092 0 .167-.075.167-.167v-2.333c0-.092-.075-.167-.167-.167z"/></g><path d="m22.167 8.667h-12.334c-1.011 0-1.833.822-1.833 1.833v11c0 1.011.822 1.833 1.833 1.833h12.334c1.011 0 1.833-.822 1.833-1.833v-11c0-1.011-.822-1.833-1.833-1.833zm-11.834 6.166v-3.667c0-.276.224-.5.5-.5s.5.224.5.5v3.667c0 .276-.224.5-.5.5s-.5-.224-.5-.5zm3.167 5.334c0 .643-.523 1.167-1.167 1.167h-.667c-.643 0-1.167-.523-1.167-1.167v-2.333c0-.643.523-1.167 1.167-1.167h.667c.643 0 1.167.523 1.167 1.167zm0-4.834c-.643 0-1.167-.523-1.167-1.167v-2.333c0-.643.523-1.167 1.167-1.167h.667c.643 0 1.167.523 1.167 1.167v2.333c0 .643-.523 1.167-1.167 1.167zm4.167 4.834c0 .643-.523 1.167-1.167 1.167h-.667c-.643 0-1.167-.523-1.167-1.167v-2.333c0-.643.523-1.167 1.167-1.167h.667c.643 0 1.167.523 1.167 1.167zm2 .666c0 .276-.224.5-.5.5s-.5-.224-.5-.5v-3.667c0-.276.224-.5.5-.5s.5.224.5.5zm0-6.666c0 .643-.523 1.167-1.167 1.167h-.667c-.643 0-1.167-.523-1.167-1.167v-2.333c0-.643.523-1.167 1.167-1.167h.667c.643 0 1.167.523 1.167 1.167zm2 6.666c0 .276-.224.5-.5.5s-.5-.224-.5-.5v-3.667c0-.276.224-.5.5-.5s.5.224.5.5zm0-6c0 .276-.224.5-.5.5s-.5-.224-.5-.5v-3.667c0-.276.224-.5.5-.5s.5.224.5.5z" fill="#26c6da"/></svg>