<svg id="bold" enable-background="new 0 0 32 32" height="512" viewBox="0 0 32 32" width="512" xmlns="http://www.w3.org/2000/svg"><path d="m26 32h-20c-3.314 0-6-2.686-6-6v-20c0-3.314 2.686-6 6-6h20c3.314 0 6 2.686 6 6v20c0 3.314-2.686 6-6 6z" fill="#f5e6fe"/><path d="m16.5 15.667c0-.368-.299-.667-.667-.667s-.667.299-.667.667v1h1.334z" fill="#d9a4fc"/><path d="m21.834 10.667h-.667v-2c0-.369-.298-.667-.667-.667h-10c-1.103 0-2 .897-2 2v12c0 1.103.897 2 2 2h11.334c.369 0 .667-.298.667-.667v-12c-.001-.368-.299-.666-.667-.666zm-3.001 9.5c0 .643-.523 1.167-1.167 1.167h-3.666c-.643 0-1.167-.523-1.167-1.167v-2.333c0-.643.523-1.167 1.167-1.167h.167v-1c0-.919.747-1.667 1.667-1.667.919 0 1.667.747 1.667 1.667v1h.167c.643 0 1.167.523 1.167 1.167v2.333zm1.001-9.5h-9.334c-.368 0-.667-.299-.667-.667s.299-.667.667-.667h9.334z" fill="#be63f9"/></svg>