<svg id="bold" enable-background="new 0 0 32 32" height="512" viewBox="0 0 32 32" width="512" xmlns="http://www.w3.org/2000/svg"><path d="m26 32h-20c-3.314 0-6-2.686-6-6v-20c0-3.314 2.686-6 6-6h20c3.314 0 6 2.686 6 6v20c0 3.314-2.686 6-6 6z" fill="#f5e6fe"/><path d="m19.661 15.884-3.5-1.19c-.104-.036-.217-.036-.322 0l-3.5 1.19c-.203.069-.339.259-.339.473v2.679c0 3.27 3.649 4.858 3.805 4.925.062.026.129.039.195.039s.133-.013.195-.04c.156-.066 3.805-1.655 3.805-4.924v-2.679c0-.214-.136-.404-.339-.473zm-1.47 2.528-1.833 2.333c-.112.143-.278.234-.459.252-.022.002-.044.003-.066.003-.158 0-.313-.056-.434-.16l-1.167-1c-.28-.24-.313-.66-.072-.94.24-.279.661-.312.939-.072l.639.547 1.404-1.786c.227-.289.646-.34.936-.112.29.226.341.645.113.935z" fill="#d9a4fc"/><path d="m22 8h-12c-1.1 0-2 .9-2 2v10.667c0 1.1.9 2 2 2h1.987c-.32-.407-.6-.847-.82-1.333h-1.167c-.367 0-.667-.3-.667-.667v-9.333h13.334v9.333c0 .367-.3.667-.667.667h-1.167c-.22.487-.5.927-.813 1.333h1.98c1.1 0 2-.9 2-2v-10.667c0-1.1-.9-2-2-2z" fill="#be63f9"/></svg>