<svg id="bold" enable-background="new 0 0 32 32" height="512" viewBox="0 0 32 32" width="512" xmlns="http://www.w3.org/2000/svg"><path d="m26 32h-20c-3.314 0-6-2.686-6-6v-20c0-3.314 2.686-6 6-6h20c3.314 0 6 2.686 6 6v20c0 3.314-2.686 6-6 6z" fill="#e3f8fa"/><path d="m22.834 10.667h-.361c.046-.317-.032-.637-.233-.891-.223-.281-.556-.442-.914-.442h-10.16c-.643-.001-1.166.523-1.166 1.166v4.333c0 .644.523 1.167 1.166 1.167h1.5v.833c0 .643.523 1.167 1.167 1.167h.833v1.333c.001.368-.299.667-.666.667h-2.684c.003-.056.017-.11.017-.167v-.667c0-.276-.224-.5-.5-.5h-2.333c-.276 0-.5.224-.5.5v3c0 .276.224.5.5.5 1.01 0 1.892-.535 2.394-1.333h3.106c1.103 0 2-.897 2-2v-1.333h1.5c.643 0 1.167-.523 1.167-1.167v-.833h1.639c.457 0 .847-.269 1.038-.667h1.491c.643 0 1.167-.523 1.167-1.167v-2.333c-.002-.643-.525-1.166-1.168-1.166z" fill="#26c6da"/></svg>