<svg id="bold" enable-background="new 0 0 32 32" height="512" viewBox="0 0 32 32" width="512" xmlns="http://www.w3.org/2000/svg"><path d="m26 32h-20c-3.314 0-6-2.686-6-6v-20c0-3.314 2.686-6 6-6h20c3.314 0 6 2.686 6 6v20c0 3.314-2.686 6-6 6z" fill="#f5e6fe"/><path d="m18.167 8h-4.334c-1.013 0-1.833.82-1.833 1.833v5.667c0 1.013.82 1.833 1.833 1.833h.167v.833c0 .643.523 1.167 1.167 1.167h1.667c.643 0 1.167-.523 1.167-1.167v-.833h.167c1.013 0 1.833-.82 1.833-1.833v-5.667c-.001-1.013-.821-1.833-1.834-1.833z" fill="#be63f9"/><g fill="#d9a4fc"><path d="m16 22c-.683 0-1.325-.268-1.808-.755-.195-.196-.193-.513.003-.707.197-.195.513-.194.707.003.589.593 1.608.593 2.197 0 .194-.196.51-.198.707-.003.196.194.197.511.003.707-.484.487-1.126.755-1.809.755z"/><path d="m16 24c-1.143 0-2.216-.447-3.022-1.259-.195-.196-.193-.512.003-.707.196-.194.512-.194.707.003.617.621 1.438.963 2.312.963s1.695-.342 2.312-.964c.195-.197.511-.197.707-.003.196.195.197.511.003.707-.806.813-1.879 1.26-3.022 1.26z"/></g></svg>