<svg id="bold" enable-background="new 0 0 32 32" height="512" viewBox="0 0 32 32" width="512" xmlns="http://www.w3.org/2000/svg"><path d="m26 32h-20c-3.314 0-6-2.686-6-6v-20c0-3.314 2.686-6 6-6h20c3.314 0 6 2.686 6 6v20c0 3.314-2.686 6-6 6z" fill="#f5e6fe"/><path d="m23.661 9.217-3.5-1.19c-.104-.036-.217-.036-.322 0l-3.5 1.19c-.203.069-.339.259-.339.474v2.679c0 3.27 3.649 4.858 3.805 4.925.063.026.129.04.195.04s.133-.013.195-.04c.156-.067 3.805-1.656 3.805-4.926v-2.678c0-.215-.136-.405-.339-.474zm-1.47 2.528-1.833 2.333c-.112.143-.278.234-.459.252-.021.002-.044.003-.065.003-.158 0-.313-.056-.434-.16l-1.167-1c-.28-.24-.313-.66-.072-.94.24-.279.661-.312.94-.072l.639.547 1.404-1.786c.227-.289.646-.34.936-.112.288.227.339.646.111.935z" fill="#d9a4fc"/><g fill="#be63f9"><path d="m8.327 16.001c-.181.004-.327.152-.327.334v6.165c0 .092.075.167.167.167h1.581c.149 0 .28-.099.321-.242l1.475-5.199c.095-.336-.085-.689-.413-.808-.605-.221-1.531-.438-2.804-.417z"/><path d="m22.667 19.667c-1.333 0-4 1.688-5.334 1.688-1.333 0-2.833-1.021-2.833-1.021s1.796.333 2.833.333c1.038 0 1.333-.354 1.333-.833 0-1.167-1.982-1.348-2.984-1.5-.984-.548-1.495-.981-3.125-1.119-.01.095-.025.189-.051.284l-1.339 4.72c1.517.69 4.129 1.783 5.5 1.783 2 0 7.334-2.667 7.334-3.333-.001-.669-.667-1.002-1.334-1.002z"/></g></svg>