<svg id="bold" enable-background="new 0 0 32 32" height="512" viewBox="0 0 32 32" width="512" xmlns="http://www.w3.org/2000/svg"><path d="m26 32h-20c-3.314 0-6-2.686-6-6v-20c0-3.314 2.686-6 6-6h20c3.314 0 6 2.686 6 6v20c0 3.314-2.686 6-6 6z" fill="#ffe6e2"/><path d="m19.661 9.217-3.5-1.19c-.104-.036-.217-.036-.322 0l-3.5 1.19c-.203.069-.339.259-.339.474v2.679c0 3.27 3.649 4.858 3.805 4.925.063.026.129.04.195.04s.133-.013.195-.04c.156-.067 3.805-1.656 3.805-4.926v-2.678c0-.215-.136-.405-.339-.474zm-1.47 2.528-1.833 2.333c-.112.143-.278.234-.459.252-.021.002-.044.003-.065.003-.158 0-.313-.056-.434-.16l-1.167-1c-.28-.24-.313-.66-.072-.94.24-.279.661-.312.939-.072l.639.547 1.404-1.786c.227-.289.646-.34.936-.112.289.227.34.646.112.935z" fill="#fd907e"/><path d="m22.834 10.667h-1.5v1.333h1.333v7.333h-13.334v-7.333h1.333v-1.333h-1.5c-.64 0-1.166.526-1.166 1.166v9c0 .64.526 1.167 1.166 1.167h5.106c-.078.334-.286.876-.841 1.431-.095.095-.124.239-.072.363.051.125.173.206.308.206h4.667c.135 0 .257-.081.308-.206s.023-.268-.072-.363c-.554-.554-.767-1.096-.85-1.431h5.114c.64 0 1.166-.527 1.166-1.167v-9c0-.64-.526-1.166-1.166-1.166z" fill="#fc573b"/></svg>