<svg id="bold" enable-background="new 0 0 32 32" height="512" viewBox="0 0 32 32" width="512" xmlns="http://www.w3.org/2000/svg"><path d="m26 32h-20c-3.314 0-6-2.686-6-6v-20c0-3.314 2.686-6 6-6h20c3.314 0 6 2.686 6 6v20c0 3.314-2.686 6-6 6z" fill="#e3f8fa"/><path d="m17.833 10.667h-.167v-1c.001-.919-.747-1.667-1.666-1.667s-1.667.748-1.667 1.667v1h-.167c-.643 0-1.167.523-1.167 1.167v2.333c0 .643.523 1.167 1.167 1.167h3.667c.643 0 1.167-.523 1.167-1.167v-2.333c0-.644-.523-1.167-1.167-1.167zm-2.5-1c0-.368.299-.667.667-.667s.667.299.667.667v1h-1.333v-1z" fill="#8ce1eb"/><path d="m22.834 10.667h-2.5v1.333h2.333v7.333h-13.334v-7.333h2.333v-1.333h-2.5c-.64 0-1.166.526-1.166 1.166v9c0 .64.526 1.167 1.166 1.167h5.106c-.078.334-.286.876-.841 1.431-.095.095-.124.239-.072.363.051.125.173.206.308.206h4.667c.135 0 .257-.081.308-.206s.023-.268-.072-.363c-.554-.554-.767-1.096-.85-1.431h5.114c.64 0 1.166-.527 1.166-1.167v-9c0-.64-.526-1.166-1.166-1.166z" fill="#26c6da"/></svg>