<svg id="bold" enable-background="new 0 0 32 32" height="512" viewBox="0 0 32 32" width="512" xmlns="http://www.w3.org/2000/svg"><path d="m26 32h-20c-3.314 0-6-2.686-6-6v-20c0-3.314 2.686-6 6-6h20c3.314 0 6 2.686 6 6v20c0 3.314-2.686 6-6 6z" fill="#f5e6fe"/><path d="m23.334 16.667h-14.668c-.368 0-.666-.299-.666-.667s.299-.667.667-.667h14.667c.368 0 .666.299.666.667s-.298.667-.666.667z" fill="#be63f9"/><path d="m20.542 17.667c-.067.303-.155.601-.288.887-.075.153-.274.479-.371.631-.99 1.445-2.258 2.148-3.877 2.148-1.654 0-2.94-.725-3.918-2.194-.003-.005-.242-.392-.337-.587-.135-.287-.223-.584-.291-.885h-1.368c.087.498.233.986.455 1.459.118.243.405.712.417.732 1.24 1.864 2.937 2.809 5.041 2.809 2.063 0 3.738-.918 4.989-2.746.033-.051.325-.508.463-.792.22-.473.365-.963.452-1.462z" fill="#be63f9"/><path d="m11.907 16 .155-.403c.444-.163 1.355-.581 1.828-1.404.794.682 2.49 1.439 6.11 1.485l.12.322h1.88v-2.087c0-3.007-3.016-4.579-5.995-4.579-2.893 0-6.006 1.431-6.006 4.574v2.092z" fill="#be63f9"/><g fill="#d9a4fc"><path d="m11.333 8h-1.333c-1.103 0-2 .897-2 2v1.333c0 .369.298.667.666.667s.667-.298.667-.667v-1.333c0-.368.299-.667.667-.667h1.333c.368 0 .667-.298.667-.666s-.299-.667-.667-.667z"/><path d="m11.333 22.667h-1.333c-.368 0-.667-.299-.667-.667v-1.333c0-.369-.299-.667-.667-.667s-.666.298-.666.667v1.333c0 1.103.897 2 2 2h1.333c.368 0 .667-.298.667-.667s-.299-.666-.667-.666z"/><path d="m22 8h-1.333c-.368 0-.667.298-.667.667s.299.667.667.667h1.333c.368 0 .667.299.667.667v1.333c0 .368.299.667.667.667s.666-.299.666-.668v-1.333c0-1.103-.897-2-2-2z"/><path d="m23.334 20c-.368 0-.667.298-.667.667v1.333c0 .368-.299.667-.667.667h-1.333c-.368 0-.667.298-.667.667s.299.666.667.666h1.333c1.103 0 2-.897 2-2v-1.333c0-.369-.298-.667-.666-.667z"/></g></svg>