<svg id="bold" enable-background="new 0 0 32 32" height="512" viewBox="0 0 32 32" width="512" xmlns="http://www.w3.org/2000/svg"><path d="m26 32h-20c-3.314 0-6-2.686-6-6v-20c0-3.314 2.686-6 6-6h20c3.314 0 6 2.686 6 6v20c0 3.314-2.686 6-6 6z" fill="#e3f8fa"/><path d="m20.167 8h-8.334c-1.011 0-1.833.822-1.833 1.833v12.333c0 1.012.822 1.834 1.833 1.834h8.334c1.011 0 1.833-.822 1.833-1.833v-12.334c0-1.011-.822-1.833-1.833-1.833zm-.167 7.703c0 3.27-3.649 4.858-3.805 4.925-.063.026-.129.04-.195.04s-.133-.013-.195-.04c-.156-.067-3.805-1.656-3.805-4.925v-2.679c0-.214.136-.404.339-.473l3.5-1.19c.104-.036.217-.036.322 0l3.5 1.19c.203.069.339.259.339.473z" fill="#26c6da"/><path d="m17.143 14.255-1.404 1.786-.639-.547c-.279-.239-.7-.207-.939.072-.24.28-.208.701.072.94l1.167 1c.121.104.275.16.434.16.021 0 .044-.001.065-.003.181-.018.347-.109.459-.252l1.833-2.333c.228-.289.177-.709-.112-.936-.29-.228-.709-.176-.936.113z" fill="#8ce1eb"/></svg>