<svg id="bold" enable-background="new 0 0 32 32" height="512" viewBox="0 0 32 32" width="512" xmlns="http://www.w3.org/2000/svg"><path d="m26 32h-20c-3.314 0-6-2.686-6-6v-20c0-3.314 2.686-6 6-6h20c3.314 0 6 2.686 6 6v20c0 3.314-2.686 6-6 6z" fill="#fff9dd"/><path d="m22.167 8h-12.334c-1.011 0-1.833.822-1.833 1.833v12.333c0 1.012.822 1.834 1.833 1.834h12.334c1.011 0 1.833-.822 1.833-1.833v-12.334c0-1.011-.822-1.833-1.833-1.833zm-8.368 2.792c1.506-.658 3.308-.594 4.763.175.244.13.337.432.208.676-.09.17-.263.266-.442.266-.079 0-.159-.019-.234-.058-1.197-.635-2.654-.685-3.894-.143-.254.109-.548-.005-.659-.258-.11-.253.005-.547.258-.658zm-2.299 8.601c0 .276-.224.5-.5.5s-.5-.224-.5-.5v-3.56c0-1.501.594-2.904 1.673-3.949.197-.192.515-.188.707.012.192.198.187.514-.011.707-.883.855-1.369 2.003-1.369 3.23zm2.257-4.669c-.171.346-.257.719-.257 1.109v4.987c0 .276-.224.5-.5.5s-.5-.224-.5-.5v-4.987c0-.546.121-1.068.361-1.552.122-.248.422-.352.67-.227.247.122.349.423.226.67zm1.743 6.702c0 .276-.224.5-.5.5s-.5-.224-.5-.5v-2.593c0-.276.224-.5.5-.5s.5.224.5.5zm2 0c0 .276-.224.5-.5.5s-.5-.224-.5-.5v-2.593c0-.276.224-.5.5-.5s.5.224.5.5zm0-4.268c0 .276-.224.5-.5.5s-.5-.224-.5-.5v-1.324c0-.275-.224-.5-.5-.5s-.5.225-.5.5v1.333c0 .276-.224.5-.5.5s-.5-.224-.5-.5v-1.333c0-.827.673-1.5 1.5-1.5s1.5.673 1.5 1.5zm.264-3.094c-.189-.191-.409-.35-.654-.472-.825-.41-1.859-.32-2.604.234-.222.165-.535.119-.7-.103-.165-.221-.119-.535.103-.699 1.039-.773 2.496-.9 3.647-.327.344.171.654.395.921.666.194.197.191.513-.005.707-.097.096-.224.144-.351.144-.13 0-.259-.05-.357-.15zm1.736 6.756c0 .276-.224.5-.5.5s-.5-.224-.5-.5v-4.987c0-.288-.048-.57-.143-.839-.092-.26.044-.546.304-.638.262-.092.547.044.638.305.133.376.201.77.201 1.172zm2-1.427c0 .276-.224.5-.5.5s-.5-.224-.5-.5v-3.56c0-1.2-.469-2.329-1.32-3.18-.195-.195-.195-.512 0-.707s.512-.195.707 0c1.04 1.04 1.613 2.42 1.613 3.887z" fill="#ffd200"/></svg>