<svg id="bold" enable-background="new 0 0 32 32" height="512" viewBox="0 0 32 32" width="512" xmlns="http://www.w3.org/2000/svg"><path d="m26 32h-20c-3.314 0-6-2.686-6-6v-20c0-3.314 2.686-6 6-6h20c3.314 0 6 2.686 6 6v20c0 3.314-2.686 6-6 6z" fill="#fff9dd"/><path d="m16.167 20.5c0-.958.541-1.791 1.333-2.211.021-1.413 1.025-2.588 2.356-2.882-.367-1.375-1.001-2.587-1.589-3.699-.634-1.197-1.233-2.329-1.323-3.403-.01-.118-.081-.222-.188-.273-.106-.049-.232-.04-.33.025-3.425 2.312-3.373 5.643-3.114 7.219-1.068-.958-1.486-2.352-1.491-2.369-.031-.107-.114-.191-.22-.225s-.222-.011-.309.057c-.074.059-1.792 1.474-1.792 4.928 0 2.944 2.193 5 5.334 5 .468 0 .912-.051 1.333-.138z" fill="#ffd200"/><path d="m22.334 19.334h-.167v-1c0-.919-.747-1.667-1.667-1.667-.919 0-1.667.747-1.667 1.667v1h-.167c-.643 0-1.167.523-1.167 1.167v2.333c0 .643.523 1.167 1.167 1.167h3.667c.643 0 1.167-.523 1.167-1.167v-2.334c0-.643-.523-1.166-1.166-1.166zm-2.501-1c0-.368.299-.667.667-.667s.667.299.667.667v1h-1.333v-1z" fill="#ffe777"/></svg>