<svg id="bold" enable-background="new 0 0 32 32" height="512" viewBox="0 0 32 32" width="512" xmlns="http://www.w3.org/2000/svg"><path d="m26 32h-20c-3.314 0-6-2.686-6-6v-20c0-3.314 2.686-6 6-6h20c3.314 0 6 2.686 6 6v20c0 3.314-2.686 6-6 6z" fill="#fff9dd"/><g fill="#ffd200"><path d="m12 19.333h-4v-1.5c0-.643.523-1.167 1.167-1.167h2.833z"/><path d="m24 19.333h-4v-2.667h2.833c.643 0 1.167.523 1.167 1.167z"/><path d="m18.667 19.333h-5.334v-2.667h5.334z"/><path d="m15.333 24h-6.167c-.644 0-1.166-.522-1.166-1.167v-2.167h7.334v3.334z"/><path d="m16.667 20.667h7.333v2.167c0 .644-.522 1.166-1.166 1.166h-6.167z"/></g><path d="m20.167 15.333h-8.334c-.276 0-.5-.224-.5-.5 0-2.394 1.936-3.989 2.019-4.055.159-.128.381-.147.559-.048.178.1.278.298.252.501-.001.01-.14 1.193.488 1.904.196.222.456.379.775.469-1.161-3.896 1.163-5.456 1.269-5.525.154-.099.35-.107.51-.019.161.088.261.256.261.439 0 1.601.746 2.351 1.536 3.144.75.753 1.599 1.607 1.665 3.168.006.136-.045.269-.139.367-.095.1-.225.155-.361.155z" fill="#ffe777"/></svg>