<svg id="bold" enable-background="new 0 0 32 32" height="512" viewBox="0 0 32 32" width="512" xmlns="http://www.w3.org/2000/svg"><path d="m26 32h-20c-3.314 0-6-2.686-6-6v-20c0-3.314 2.686-6 6-6h20c3.314 0 6 2.686 6 6v20c0 3.314-2.686 6-6 6z" fill="#e3f8fa"/><path d="m22.904 18.107c-.367-.669-.683-1.247-.731-1.802-.01-.117-.081-.219-.186-.271-.107-.053-.23-.044-.328.02-1.725 1.126-1.949 2.681-1.88 3.669-.362-.445-.512-.924-.514-.931-.032-.105-.113-.188-.217-.221-.105-.035-.219-.014-.305.053-.044.034-1.074.853-1.074 2.82 0 1.701 1.302 2.889 3.167 2.889s3.167-1.188 3.167-2.889c-.003-1.337-.585-2.4-1.099-3.337z" fill="#8ce1eb"/><g fill="#26c6da"><path d="m15.667 14v-1.333c0-.184.149-.333.333-.333h5c.184 0 .333.149.333.333v1.333c0 .184-.149.333-.333.333h-5c-.184 0-.333-.149-.333-.333z"/><path d="m10.333 14v-1.333c0-.184.149-.333.333-.333h3.667c.184 0 .333.149.333.333v1.333c0 .184-.149.333-.333.333h-3.667c-.184 0-.333-.149-.333-.333z"/><path d="m8 16.667v-1.333c0-.185.149-.334.333-.334h2.667c.184 0 .333.149.333.333v1.333c0 .185-.149.334-.333.334h-2.667c-.184 0-.333-.149-.333-.333z"/><path d="m19 11.333v-1.333c0-.184.149-.333.333-.333h4.334c.184 0 .333.149.333.333v1.333c0 .184-.149.333-.333.333h-4.334c-.184.001-.333-.149-.333-.333z"/><path d="m17.667 11.667h-5c-.184 0-.333-.149-.333-.333v-1.334c0-.184.149-.333.333-.333h5c.184 0 .333.149.333.333v1.333c0 .184-.149.334-.333.334z"/><path d="m11 11.667h-2.667c-.184 0-.333-.15-.333-.334v-1.333c0-.184.149-.333.333-.333h2.667c.184 0 .333.149.333.333v1.333c0 .184-.149.334-.333.334z"/><path d="m8 14v-1.333c0-.184.149-.333.333-.333h.667c.184 0 .333.149.333.333v1.333c0 .184-.149.333-.333.333h-.667c-.184 0-.333-.149-.333-.333z"/><path d="m22.667 12.333h1c.184 0 .333.149.333.333v1.334c0 .184-.149.333-.333.333h-1c-.184 0-.333-.149-.333-.333v-1.333c0-.184.149-.334.333-.334z"/><path d="m13.667 19.667h-5.334c-.184 0-.333-.15-.333-.334v-1.333c0-.184.149-.333.333-.333h5.334c.184 0 .333.149.333.333v1.333c0 .184-.149.334-.333.334z"/><path d="m16.333 17h-3.667c-.184 0-.333-.149-.333-.333v-1.333c0-.184.149-.333.333-.333h3.667c.184 0 .333.149.333.333v1.333c.001.184-.149.333-.333.333z"/></g></svg>