<svg id="bold" enable-background="new 0 0 32 32" height="512" viewBox="0 0 32 32" width="512" xmlns="http://www.w3.org/2000/svg"><path d="m26 32h-20c-3.314 0-6-2.686-6-6v-20c0-3.314 2.686-6 6-6h20c3.314 0 6 2.686 6 6v20c0 3.314-2.686 6-6 6z" fill="#fff9dd"/><path d="m23.661 9.217-3.5-1.19c-.104-.036-.217-.036-.322 0l-3.5 1.19c-.203.069-.339.259-.339.474v2.679c0 3.27 3.649 4.858 3.805 4.925.063.026.129.04.195.04s.133-.013.195-.04c.156-.067 3.805-1.656 3.805-4.926v-2.678c0-.215-.136-.405-.339-.474zm-1.47 2.528-1.833 2.333c-.112.143-.278.234-.459.252-.021.002-.044.003-.065.003-.158 0-.313-.056-.434-.16l-1.167-1c-.28-.24-.313-.66-.072-.94.24-.279.661-.312.94-.072l.639.547 1.404-1.786c.227-.289.646-.34.936-.112.288.227.339.646.111.935z" fill="#ffe777"/><path d="m24 16.027v6.14c0 1.013-.82 1.833-1.833 1.833h-12.334c-1.013 0-1.833-.82-1.833-1.833v-8.333c0-1.014.82-1.834 1.833-1.834h3.227c.307 0 .6.12.82.34l.847.847c.427 2.853 2.993 4.673 4.554 5.333.227.1.473.147.72.147s.493-.047.713-.147c.96-.407 2.3-1.247 3.286-2.493z" fill="#ffd200"/></svg>