<svg id="bold" enable-background="new 0 0 32 32" height="512" viewBox="0 0 32 32" width="512" xmlns="http://www.w3.org/2000/svg"><path d="m26 32h-20c-3.314 0-6-2.686-6-6v-20c0-3.314 2.686-6 6-6h20c3.314 0 6 2.686 6 6v20c0 3.314-2.686 6-6 6z" fill="#e3f8fa"/><path d="m14.02 17.34h-.667c-.368 0-.667-.299-.667-.667s.299-.667.667-.667h.667c.368 0 .667.299.667.667s-.298.667-.667.667z" fill="#8ce1eb"/><path d="m18.687 17.34h-.667c-.368 0-.667-.299-.667-.667s.299-.667.667-.667h.667c.368 0 .667.299.667.667s-.299.667-.667.667z" fill="#8ce1eb"/><path d="m23.395 13.667c0-.919-.748-1.667-1.667-1.667h-.067c-.767-2.393-3.031-4-5.64-4-2.572 0-4.886 1.645-5.635 4.001-.915.005-1.658.75-1.658 1.666 0 .792.557 1.454 1.299 1.623v1.767c0 .905.181 1.784.538 2.614.117.269.404.788.414.805 1.067 1.754 3.042 3.524 5.048 3.524 1.966 0 3.925-1.735 5-3.466.034-.057.331-.566.463-.867.356-.84.537-1.722.537-2.622v-1.742c.777-.142 1.368-.82 1.368-1.636zm-2.386 3.75c-.629.17-1.029.563-1.359.895-.399.399-.686.688-1.308.688-1.077 0-1.544-.361-1.729-.578-.148-.172-.37-.276-.609-.285-.248-.004-.469.079-.621.232-.302.288-.842.631-1.697.631-.625 0-.912-.288-1.31-.688-.325-.326-.718-.712-1.331-.885-.008-.123-.019-.246-.019-.371v-1.723h10.001v1.712c0 .125-.01.248-.018.372z" fill="#26c6da"/></svg>