<svg id="bold" enable-background="new 0 0 32 32" height="512" viewBox="0 0 32 32" width="512" xmlns="http://www.w3.org/2000/svg"><path d="m26 32h-20c-3.314 0-6-2.686-6-6v-20c0-3.314 2.686-6 6-6h20c3.314 0 6 2.686 6 6v20c0 3.314-2.686 6-6 6z" fill="#ffe6e2"/><g fill="#fd907e"><path d="m23.334 13.333c-.369 0-.667-.299-.667-.667v-2.666c0-.368-.299-.667-.667-.667h-2.667c-.369 0-.667-.299-.667-.667s.299-.666.667-.666h2.667c1.103 0 2 .897 2 2v2.667c0 .368-.298.666-.666.666z"/><path d="m12.667 24h-2.667c-1.103 0-2-.897-2-2v-2.667c0-.368.298-.667.667-.667s.667.299.667.667v2.667c0 .368.299.667.667.667h2.667c.369 0 .667.299.667.667s-.3.666-.668.666z"/><path d="m22 24h-2.667c-.369 0-.667-.299-.667-.667s.298-.667.667-.667h2.667c.368 0 .667-.299.667-.667v-2.667c0-.368.298-.667.667-.667s.666.3.666.668v2.667c0 1.103-.897 2-2 2z"/><path d="m8.666 13.333c-.368 0-.666-.298-.666-.666v-2.667c0-1.103.897-2 2-2h2.667c.369 0 .667.299.667.667s-.298.667-.667.667h-2.667c-.368 0-.667.299-.667.667v2.667c0 .367-.298.665-.667.665z"/></g><path d="m18.718 12.805c-.34 0-.615.243-.615.542v2.618c0 .05-.046.09-.103.09s-.103-.04-.103-.09v-3.701c0-.299-.276-.542-.615-.542s-.615.243-.615.542v3.701c0 .05-.046.09-.103.09s-.103-.04-.103-.09v-4.062c0-.299-.276-.542-.615-.542-.34 0-.615.243-.615.542v4.062c0 .05-.046.09-.103.09s-.103-.04-.103-.09v-3.701c0-.3-.275-.542-.615-.542-.341 0-.615.242-.615.542v5.514s-.663-1.083-1.641-1.083c-.615 0-.821.193-.821.361 0 .456.612.271 1.231 1.805s1.428 2.16 2.462 2.167h1.641c1.46 0 2.667-.691 2.667-1.98 0-.002 0-.004 0-.007v-1.264-4.431c-.001-.298-.276-.541-.616-.541z" fill="#fc573b"/></svg>