<svg id="bold" enable-background="new 0 0 32 32" height="512" viewBox="0 0 32 32" width="512" xmlns="http://www.w3.org/2000/svg"><path d="m26 32h-20c-3.314 0-6-2.686-6-6v-20c0-3.314 2.686-6 6-6h20c3.314 0 6 2.686 6 6v20c0 3.314-2.686 6-6 6z" fill="#f5e6fe"/><path d="m23.755 15.575-7.4-7.426c-.188-.189-.521-.189-.708 0l-7.402 7.428c-.156.156-.245.372-.245.591 0 .46.374.833.833.833h1.167v5.5c0 .827.673 1.5 1.5 1.5h9c.827 0 1.5-.673 1.5-1.5v-5.5h1.167c.46 0 .833-.374.833-.833 0-.219-.089-.435-.245-.593zm-4.755 5.26c0 .643-.523 1.167-1.167 1.167h-3.667c-.643 0-1.167-.523-1.167-1.167v-2.333c0-.643.523-1.167 1.167-1.167h.167v-1c0-.919.748-1.667 1.667-1.667s1.667.747 1.667 1.667v1h.167c.643 0 1.167.523 1.167 1.167v2.333z" fill="#be63f9"/><path d="m16 15.668c-.368 0-.667.299-.667.667v1h1.333v-1c.001-.368-.298-.667-.666-.667z" fill="#d9a4fc"/></svg>