<svg id="bold" enable-background="new 0 0 32 32" height="512" viewBox="0 0 32 32" width="512" xmlns="http://www.w3.org/2000/svg"><path d="m26 32h-20c-3.314 0-6-2.686-6-6v-20c0-3.314 2.686-6 6-6h20c3.314 0 6 2.686 6 6v20c0 3.314-2.686 6-6 6z" fill="#e3f8fa"/><path d="m19.661 8.384-3.5-1.19c-.104-.036-.217-.036-.322 0l-3.5 1.19c-.203.069-.339.259-.339.473v2.679c0 3.27 3.649 4.858 3.805 4.925.063.026.129.04.195.04s.133-.013.195-.04c.156-.067 3.805-1.655 3.805-4.925v-2.679c0-.214-.136-.404-.339-.473zm-1.47 2.528-1.833 2.333c-.112.143-.278.234-.459.252-.021.002-.044.003-.065.003-.158 0-.313-.056-.434-.16l-1.167-1c-.28-.24-.313-.66-.072-.94.24-.279.661-.312.939-.072l.639.547 1.404-1.786c.227-.289.646-.34.936-.112.289.226.34.646.112.935z" fill="#8ce1eb"/><path d="m23.334 18.5h-.667v-6.667c0-.733-.6-1.333-1.333-1.333v8h-10.668v-8c-.733 0-1.333.6-1.333 1.333v6.667h-.667c-.366 0-.666.3-.666.667s.3.667.667.667h14.667c.367 0 .667-.3.667-.667-.001-.367-.301-.667-.667-.667z" fill="#26c6da"/></svg>