<svg id="bold" enable-background="new 0 0 32 32" height="512" viewBox="0 0 32 32" width="512" xmlns="http://www.w3.org/2000/svg"><path d="m26 32h-20c-3.314 0-6-2.686-6-6v-20c0-3.314 2.686-6 6-6h20c3.314 0 6 2.686 6 6v20c0 3.314-2.686 6-6 6z" fill="#e3f8fa"/><path d="m19.333 8h-6.667c-1.103 0-2 .897-2 2v12c0 1.103.897 2 2 2h6.667c1.103 0 2-.897 2-2v-12c.001-1.103-.897-2-2-2zm-6.666 1.333h6.667c.367 0 .666.299.666.667v11.333h-8v-11.333c0-.368.299-.667.667-.667z" fill="#26c6da"/><path d="m16 13.333c-1.429 0-2.728.78-3.333 2 .605 1.22 1.905 2 3.333 2s2.728-.78 3.333-2c-.605-1.22-1.904-2-3.333-2zm0 2.834c-.46 0-.833-.373-.833-.833s.373-.834.833-.834.833.373.833.833-.373.834-.833.834z" fill="#8ce1eb"/></svg>