<svg id="bold" enable-background="new 0 0 32 32" height="512" viewBox="0 0 32 32" width="512" xmlns="http://www.w3.org/2000/svg"><path d="m26 32h-20c-3.314 0-6-2.686-6-6v-20c0-3.314 2.686-6 6-6h20c3.314 0 6 2.686 6 6v20c0 3.314-2.686 6-6 6z" fill="#e3f8fa"/><path d="m23.661 12.55-3.5-1.19c-.104-.036-.217-.036-.322 0l-3.5 1.19c-.203.069-.339.26-.339.474v2.679c0 3.27 3.649 4.858 3.805 4.925.063.026.129.04.195.04s.133-.013.195-.04c.156-.067 3.805-1.656 3.805-4.926v-2.679c0-.213-.136-.404-.339-.473zm-1.47 2.528-1.833 2.333c-.112.143-.278.234-.459.252-.021.002-.044.003-.065.003-.158 0-.313-.056-.434-.16l-1.167-1c-.28-.24-.313-.66-.072-.94.24-.279.661-.312.94-.072l.639.547 1.404-1.786c.227-.289.646-.34.936-.112.288.227.339.646.111.935z" fill="#8ce1eb"/><path d="m18.667 10.353v-.353c0-1.1-.9-2-2-2h-6.667c-1.1 0-2 .9-2 2v12c0 1.1.9 2 2 2h6.667c1.1 0 2-.9 2-2v-.44c-.42-.227-.88-.527-1.333-.887v.66h-8v-11.333c0-.367.3-.667.667-.667h6.667c.367 0 .667.3.667.667v.807z" fill="#26c6da"/></svg>