<svg id="bold" enable-background="new 0 0 32 32" height="512" viewBox="0 0 32 32" width="512" xmlns="http://www.w3.org/2000/svg"><path d="m26 32h-20c-3.314 0-6-2.686-6-6v-20c0-3.314 2.686-6 6-6h20c3.314 0 6 2.686 6 6v20c0 3.314-2.686 6-6 6z" fill="#ffe6e2"/><path d="m19.333 8h-6.667c-1.103 0-2 .897-2 2v12c0 1.103.897 2 2 2h6.667c1.103 0 2-.897 2-2v-12c.001-1.103-.897-2-2-2zm-6.666 1.333h6.667c.367 0 .666.299.666.667v11.333h-8v-11.333c0-.368.299-.667.667-.667z" fill="#fc573b"/><g fill="#fd907e"><path d="m17.167 18.667c-.276 0-.5-.224-.5-.5v-3.667c0-.368-.299-.667-.667-.667s-.667.299-.667.667v3.667c0 .276-.224.5-.5.5s-.5-.224-.5-.5v-3.667c0-.919.748-1.667 1.667-1.667s1.667.747 1.667 1.667v3.667c0 .276-.224.5-.5.5z"/><path d="m18.833 17.333c-.276 0-.5-.224-.5-.5v-2.333c0-1.286-1.047-2.333-2.333-2.333s-2.333 1.047-2.333 2.333v2.333c0 .276-.224.5-.5.5s-.5-.224-.5-.5v-2.333c0-1.838 1.496-3.333 3.333-3.333s3.333 1.495 3.333 3.333v2.333c0 .276-.223.5-.5.5z"/></g></svg>