<svg id="bold" enable-background="new 0 0 32 32" height="512" viewBox="0 0 32 32" width="512" xmlns="http://www.w3.org/2000/svg"><path d="m26 32h-20c-3.314 0-6-2.686-6-6v-20c0-3.314 2.686-6 6-6h20c3.314 0 6 2.686 6 6v20c0 3.314-2.686 6-6 6z" fill="#ffe6e2"/><path d="m21.5 14.667h-.167v-1c0-.919-.747-1.667-1.667-1.667-.918 0-1.666.748-1.666 1.667v1h-.167c-.643 0-1.167.523-1.167 1.167v2.333c0 .643.523 1.167 1.167 1.167h3.667c.643 0 1.167-.523 1.167-1.167v-2.333c0-.644-.523-1.167-1.167-1.167zm-2.5-1c0-.368.299-.667.667-.667s.667.299.667.667v1h-1.334z" fill="#fd907e"/><path d="m18.667 21.333h-8v-11.333c0-.368.299-.667.667-.667h6.666c.368 0 .667.299.667.667v.667h1.333v-.667c0-1.103-.897-2-2-2h-6.667c-1.103 0-2 .897-2 2v12c0 1.103.897 2 2 2h6.667c1.103 0 2-.897 2-2v-1.333h-1.333z" fill="#fc573b"/></svg>