<svg id="bold" enable-background="new 0 0 32 32" height="512" viewBox="0 0 32 32" width="512" xmlns="http://www.w3.org/2000/svg"><path d="m26 32h-20c-3.314 0-6-2.686-6-6v-20c0-3.314 2.686-6 6-6h20c3.314 0 6 2.686 6 6v20c0 3.314-2.686 6-6 6z" fill="#e3f8fa"/><g fill="#8ce1eb"><path d="m11.333 8h-1.333c-1.103 0-2 .897-2 2v1.333c0 .369.298.667.666.667s.667-.298.667-.667v-1.333c0-.368.299-.667.667-.667h1.333c.368 0 .667-.298.667-.666s-.299-.667-.667-.667z"/><path d="m11.333 22.667h-1.333c-.368 0-.667-.299-.667-.667v-1.333c0-.369-.299-.667-.667-.667s-.666.298-.666.667v1.333c0 1.103.897 2 2 2h1.333c.368 0 .667-.298.667-.667s-.299-.666-.667-.666z"/><path d="m22 8h-1.333c-.368 0-.667.298-.667.667s.299.667.667.667h1.333c.368 0 .667.299.667.667v1.333c0 .368.299.667.667.667s.666-.299.666-.668v-1.333c0-1.103-.897-2-2-2z"/><path d="m23.334 20c-.368 0-.667.298-.667.667v1.333c0 .368-.299.667-.667.667h-1.333c-.368 0-.667.298-.667.667s.299.666.667.666h1.333c1.103 0 2-.897 2-2v-1.333c0-.369-.298-.667-.666-.667z"/></g><path d="m20.667 11.333c-.552 0-1 .448-1 1v3.5c0 .092-.075.167-.167.167s-.167-.075-.167-.167v-5.5c0-.552-.448-1-1-1s-1 .448-1 1v5.5c0 .092-.075.167-.167.167s-.166-.075-.166-.167v-6.167c0-.552-.448-1-1-1s-1 .448-1 1v6.167c0 .092-.075.167-.167.167s-.167-.075-.167-.167v-5.5c0-.553-.447-1-1-1s-1 .447-1 1v7s-1.078-2-2.667-2c-1 0-1.333.357-1.333.667 0 .842 1.167 1.273 1.833 2.665 1.298 2.711 2.487 3.988 4.167 4.002h2.667c2.372 0 4.333-1.275 4.333-3.655 0-.004 0-.008 0-.012v-1.667-5c.001-.552-.447-1-.999-1z" fill="#26c6da"/></svg>