<svg id="bold" enable-background="new 0 0 32 32" height="512" viewBox="0 0 32 32" width="512" xmlns="http://www.w3.org/2000/svg"><path d="m26 32h-20c-3.314 0-6-2.686-6-6v-20c0-3.314 2.686-6 6-6h20c3.314 0 6 2.686 6 6v20c0 3.314-2.686 6-6 6z" fill="#f5e6fe"/><path d="m20.08 19.34c-.713-.2-1.433-.347-2.167-.44-.393.34-.787.593-1.113.747-.247.12-.527.187-.8.187s-.553-.067-.8-.187c-.327-.153-.72-.407-1.113-.747-.727.093-1.447.24-2.153.44-.147.04-.293.087-.44.133.64.953 1.96 1.693 4.507 1.693s3.867-.74 4.507-1.693c-.148-.053-.288-.093-.428-.133z" fill="#be63f9"/><path d="m23.801 12.974c-.247-.493-.7-.807-1.207-.84-2.427-.187-4.187-.787-5.374-1.833-.693-.62-1.747-.62-2.44 0-1.187 1.047-2.947 1.647-5.367 1.833-.513.033-.953.34-1.207.833-.3.573-.273 1.273.067 1.82.693 1.147 1.047 2.26 1.047 3.327 0 .167.08.32.213.413.14.093.314.113.467.053.527-.207 1.06-.38 1.573-.527.487-.133.98-.247 1.48-.333-.42-.66-.72-1.46-.72-2.4v-.947c0-.813.527-1.513 1.293-1.753l1.707-.66c.433-.167.9-.167 1.333 0l1.833.713c.707.273 1.167.947 1.167 1.707v.94c0 .94-.3 1.74-.72 2.4.5.087.993.2 1.487.333.507.147 1.04.32 1.567.527.06.02.12.033.18.033.1 0 .2-.033.287-.087.133-.093.213-.247.213-.413 0-1.06.353-2.18 1.047-3.333.34-.546.367-1.233.074-1.806z" fill="#be63f9"/><path d="m16 18.5c-.075 0-.15-.017-.219-.05-.087-.042-2.115-1.054-2.115-3.128v-.946c0-.236.164-.435.385-.486l1.767-.688c.117-.046.246-.046.363 0l1.833.714c.192.075.318.26.318.466v.94c0 2.075-2.028 3.086-2.115 3.128-.067.034-.142.05-.217.05z" fill="#d9a4fc"/></svg>