<svg id="bold" enable-background="new 0 0 32 32" height="512" viewBox="0 0 32 32" width="512" xmlns="http://www.w3.org/2000/svg"><path d="m26 32h-20c-3.314 0-6-2.686-6-6v-20c0-3.314 2.686-6 6-6h20c3.314 0 6 2.686 6 6v20c0 3.314-2.686 6-6 6z" fill="#ffe6e2"/><path d="m11.5 20.167h-.167v-3.333h-1.333v3.333c-.368 0-.667.299-.667.667s.299.666.667.666h1.5c.368 0 .667-.299.667-.667s-.299-.666-.667-.666z" fill="#fd907e"/><path d="m22 20.167v-3h-1.333v3c-.368 0-.667.299-.667.667s.299.667.667.667h1.333c.368 0 .667-.299.667-.667s-.299-.667-.667-.667z" fill="#fd907e"/><g fill="#fc573b"><path d="m19.738 11.5-2.984 6h2.177l2.984-6z"/><path d="m23.344 11.622-2.924 5.878h2.413c.643 0 1.167-.523 1.167-1.167v-3.667c0-.459-.269-.854-.656-1.044z"/><path d="m15.737 11.5-2.984 6h2.511l2.984-6z"/><path d="m10.581 11.5h-1.415c-.643 0-1.166.523-1.166 1.167v3.667c0 .097.016.191.038.281z"/><path d="m14.248 11.5h-2.178l-2.98 5.992c.026.002.05.008.076.008h2.098z"/></g></svg>