<svg id="bold" enable-background="new 0 0 32 32" height="512" viewBox="0 0 32 32" width="512" xmlns="http://www.w3.org/2000/svg"><path d="m26 32h-20c-3.314 0-6-2.686-6-6v-20c0-3.314 2.686-6 6-6h20c3.314 0 6 2.686 6 6v20c0 3.314-2.686 6-6 6z" fill="#fff9dd"/><path d="m19.12 10.02-5.334-2c-.08-.027-.16-.027-.24 0l-5.334 2c-.126.047-.212.173-.212.313v4.287c0 4.54 3.093 6.407 4.674 7.067.067-1.38.96-2.567 2.22-3.053.719-1.567 2.326-2.634 4.106-2.634.073 0 .153 0 .227.007.073-.433.107-.893.107-1.387v-4.287c-.001-.14-.087-.266-.214-.313z" fill="#ffd200"/><path d="m21.435 24h-5.275c-1.191 0-2.16-.957-2.16-2.133 0-1.094.838-1.998 1.914-2.119.331-1.394 1.612-2.414 3.087-2.414 1.161 0 2.232.632 2.782 1.627 1.258.163 2.217 1.229 2.217 2.506 0 1.397-1.15 2.533-2.565 2.533z" fill="#ffe777"/></svg>