<svg id="bold" enable-background="new 0 0 32 32" height="512" viewBox="0 0 32 32" width="512" xmlns="http://www.w3.org/2000/svg"><path d="m26 32h-20c-3.314 0-6-2.686-6-6v-20c0-3.314 2.686-6 6-6h20c3.314 0 6 2.686 6 6v20c0 3.314-2.686 6-6 6z" fill="#fff9dd"/><path d="m19.12 10.02-5.334-2c-.08-.027-.16-.027-.24 0l-5.334 2c-.126.047-.212.173-.212.313v4.287c0 6.08 5.54 7.36 5.594 7.373.026.007.046.007.073.007s.047 0 .073-.007c.02-.007.907-.207 1.967-.833v-.487c-.68-.06-1.287-.507-1.533-1.153-.267-.7-.08-1.507.48-2.013l1.82-1.653c.7-.64 1.753-.64 2.453 0l.28.253c.087-.46.127-.953.127-1.487v-4.287c-.001-.14-.087-.266-.214-.313z" fill="#ffd200"/><g fill="#ffe777"><path d="m19.836 18.463-1.833-1.667c-.191-.173-.482-.173-.673 0l-1.833 1.667c-.153.139-.204.358-.13.55.075.193.26.32.466.32h1.167v4c0 .369.299.667.667.667s.667-.299.667-.667v-4h1.166c.207 0 .392-.127.466-.32.075-.192.023-.411-.13-.55z"/><path d="m23.967 21.653c-.075-.193-.26-.32-.466-.32h-1.167v-4c0-.368-.299-.667-.667-.667s-.667.299-.667.667v4h-1.167c-.207 0-.392.127-.466.32s-.023.411.13.55l1.833 1.667c.095.087.216.13.336.13s.241-.043.336-.13l1.833-1.667c.155-.139.206-.357.132-.55z"/></g></svg>