<svg id="bold" enable-background="new 0 0 32 32" height="512" viewBox="0 0 32 32" width="512" xmlns="http://www.w3.org/2000/svg"><path d="m26 32h-20c-3.314 0-6-2.686-6-6v-20c0-3.314 2.686-6 6-6h20c3.314 0 6 2.686 6 6v20c0 3.314-2.686 6-6 6z" fill="#e3f8fa"/><path d="m19.12 10.02-5.334-2c-.08-.027-.16-.027-.24 0l-5.334 2c-.126.047-.212.173-.212.313v4.287c0 6.08 5.54 7.36 5.594 7.373.026.007.046.007.073.007s.047 0 .073-.007c.013 0 .233-.053.58-.18.06-.093.133-.187.213-.267-.7-.253-1.2-.927-1.2-1.713 0-.707.407-1.32 1-1.627-.393-.56-.453-1.32-.087-1.953.24-.427.633-.727 1.107-.86.267-.067.533-.073.793-.027.4-1.187 1.647-2.033 3.187-2.033v-3c0-.14-.086-.266-.213-.313z" fill="#26c6da"/><path d="m23.5 19.333h-.883c-.063-.448-.185-.872-.361-1.256l.827-.478c.239-.138.321-.444.183-.683-.137-.239-.443-.322-.683-.183l-.852.492c-.16-.199-.335-.379-.525-.535.08-.165.128-.341.128-.524 0-.841-.878-1.5-2-1.5s-2 .659-2 1.5c0 .184.048.359.128.524-.191.156-.366.336-.525.535l-.852-.492c-.24-.139-.546-.056-.683.183-.138.239-.056.545.183.683l.827.478c-.176.384-.298.808-.361 1.256h-.883c-.276 0-.5.224-.5.5s.224.5.5.5h.847c.039.572.177 1.111.396 1.589l-.828.478c-.239.138-.321.444-.183.683s.443.322.683.183l.852-.492c.607.755 1.456 1.226 2.398 1.226s1.792-.471 2.398-1.226l.852.492c.24.139.546.056.683-.183.138-.239.056-.545-.183-.683l-.827-.477c.219-.479.357-1.017.396-1.589h.848c.276 0 .5-.224.5-.5s-.224-.501-.5-.501z" fill="#8ce1eb"/></svg>