<svg id="bold" enable-background="new 0 0 32 32" height="512" viewBox="0 0 32 32" width="512" xmlns="http://www.w3.org/2000/svg"><path d="m26 32h-20c-3.314 0-6-2.686-6-6v-20c0-3.314 2.686-6 6-6h20c3.314 0 6 2.686 6 6v20c0 3.314-2.686 6-6 6z" fill="#e3f8fa"/><path d="m19.12 10.02-5.334-2c-.08-.027-.16-.027-.24 0l-5.334 2c-.126.047-.212.173-.212.313v4.287c0 6.08 5.54 7.36 5.594 7.373.026.007.046.007.073.007s.047 0 .073-.007c.007 0 .113-.027.3-.087.2-1.086 1.153-1.906 2.293-1.906h.887c1.133-1.12 2.113-2.827 2.113-5.38v-4.287c0-.14-.086-.266-.213-.313z" fill="#26c6da"/><path d="m22 20c-.868 0-1.601.559-1.877 1.333h-3.79c-.551 0-1 .449-1 1v1c0 .369.298.667.667.667s.667-.299.667-.667v-.667h3.456c.276.775 1.009 1.334 1.877 1.334 1.103 0 2-.897 2-2s-.897-2-2-2zm0 2.667c-.368 0-.667-.299-.667-.667s.299-.667.667-.667.667.299.667.667-.299.667-.667.667z" fill="#8ce1eb"/></svg>