<svg id="bold" enable-background="new 0 0 32 32" height="512" viewBox="0 0 32 32" width="512" xmlns="http://www.w3.org/2000/svg"><path d="m26 32h-20c-3.314 0-6-2.686-6-6v-20c0-3.314 2.686-6 6-6h20c3.314 0 6 2.686 6 6v20c0 3.314-2.686 6-6 6z" fill="#f5e6fe"/><path d="m19.126 10.026-5.334-2c-.08-.027-.16-.027-.24 0l-5.334 2c-.127.047-.213.173-.213.313v4.287c0 6.08 5.54 7.36 5.594 7.373.027.007.047.007.073.007s.047 0 .073-.007c.02-.007 1.087-.247 2.28-1.027l-1.353-1.353c-.66-.653-1.027-1.533-1.027-2.473s.373-1.82 1.04-2.48c.607-.62 1.5-.987 2.44-.993h.02c.8 0 1.587.273 2.193.747v-4.08c.001-.141-.085-.268-.212-.314z" fill="#be63f9"/><g fill="#d9a4fc"><path d="m19.326 21.495c-.556 0-1.11-.215-1.533-.638l-2.174-2.181c-.41-.405-.636-.949-.636-1.529 0-.581.227-1.125.639-1.533.79-.807 2.239-.817 3.059.002l.373.374c.195.195.195.512 0 .707-.196.195-.512.194-.707 0l-.373-.373c-.439-.439-1.218-.438-1.643-.004-.227.224-.348.515-.348.827s.122.603.342.821l2.175 2.182c.426.426 1.098.46 1.563.079.212-.174.529-.144.703.07.175.214.144.529-.07.704-.402.33-.887.492-1.37.492z"/><path d="m21.863 24.029c-.581 0-1.125-.227-1.533-.638l-.358-.359c-.195-.195-.195-.512.001-.707.195-.195.513-.195.708.001l.359.36c.219.222.511.343.823.343.312 0 .603-.121.821-.341.224-.222.346-.513.346-.825s-.121-.603-.342-.821l-2.176-2.183c-.41-.41-1.121-.443-1.561-.081-.212.175-.527.146-.704-.067-.176-.213-.146-.528.067-.704.82-.678 2.143-.617 2.905.145l2.174 2.181c.41.405.636.949.636 1.53 0 .58-.227 1.124-.639 1.532-.402.407-.946.634-1.527.634z"/></g></svg>