<svg id="bold" enable-background="new 0 0 32 32" height="512" viewBox="0 0 32 32" width="512" xmlns="http://www.w3.org/2000/svg"><path d="m26 32h-20c-3.314 0-6-2.686-6-6v-20c0-3.314 2.686-6 6-6h20c3.314 0 6 2.686 6 6v20c0 3.314-2.686 6-6 6z" fill="#e3f8fa"/><path d="m19.12 10.02-5.334-2c-.08-.027-.16-.027-.24 0l-5.334 2c-.126.047-.212.173-.212.313v4.287c0 6.08 5.54 7.36 5.594 7.373.026.007.046.007.073.007s.047 0 .073-.007c.027-.007 1.32-.3 2.653-1.293-.24-.633-.393-1.307-.393-1.993 0-2.127 1.407-3.933 3.333-4.507v-3.867c0-.14-.086-.266-.213-.313z" fill="#26c6da"/><path d="m20.667 15.333c-1.838 0-3.333 1.514-3.333 3.375 0 2.568 2.886 5.066 3.008 5.172.094.08.209.12.325.12s.231-.04.325-.12c.123-.105 3.008-2.603 3.008-5.172 0-1.861-1.495-3.375-3.333-3.375zm0 4.667c-.735 0-1.333-.598-1.333-1.333s.598-1.333 1.333-1.333 1.333.598 1.333 1.333-.598 1.333-1.333 1.333z" fill="#8ce1eb"/></svg>