<svg id="bold" enable-background="new 0 0 32 32" height="512" viewBox="0 0 32 32" width="512" xmlns="http://www.w3.org/2000/svg"><path d="m26 32h-20c-3.314 0-6-2.686-6-6v-20c0-3.314 2.686-6 6-6h20c3.314 0 6 2.686 6 6v20c0 3.314-2.686 6-6 6z" fill="#ffe6e2"/><path d="m19.12 10.02-5.334-2c-.08-.027-.16-.027-.24 0l-5.334 2c-.126.047-.212.173-.212.313v4.287c0 6.08 5.54 7.36 5.594 7.373.026.007.046.007.073.007s.047 0 .073-.007c.007 0 .1-.027.26-.073v-2.753c0-1.38 1.12-2.5 2.5-2.5h2.593c.153-.613.24-1.293.24-2.047v-4.287c0-.14-.086-.266-.213-.313z" fill="#fc573b"/><g fill="#fd907e"><path d="m19.667 20.914 4.066-2.482c-.214-.261-.536-.432-.899-.432h-6.334c-.364 0-.685.171-.899.432z"/><path d="m19.927 21.927c-.08.049-.17.073-.26.073s-.181-.024-.26-.073l-4.073-2.486v3.393c0 .643.523 1.167 1.167 1.167h6.334c.642-.001 1.165-.524 1.165-1.168v-3.393z"/></g></svg>