<svg id="bold" enable-background="new 0 0 32 32" height="512" viewBox="0 0 32 32" width="512" xmlns="http://www.w3.org/2000/svg"><path d="m26 32h-20c-3.314 0-6-2.686-6-6v-20c0-3.314 2.686-6 6-6h20c3.314 0 6 2.686 6 6v20c0 3.314-2.686 6-6 6z" fill="#e3f8fa"/><path d="m19.12 10.02-5.334-2c-.08-.027-.16-.027-.24 0l-5.334 2c-.126.047-.212.173-.212.313v4.287c0 6.08 5.54 7.36 5.594 7.373.026.007.046.007.073.007s.047 0 .073-.007c.02-.007 1.073-.247 2.26-1.013v-2.48c0-.973.56-1.82 1.373-2.233.187-.913.993-1.6 1.96-1.6v-4.333c0-.141-.086-.267-.213-.314z" fill="#26c6da"/><path d="m22.834 17.333h-.167v-.667c0-.367-.299-.666-.667-.666s-.667.299-.667.667v.667h-1.333v-.667c0-.368-.298-.667-.667-.667s-.667.299-.667.667v.667h-.166c-.643 0-1.167.523-1.167 1.167v4.333c0 .643.523 1.167 1.167 1.167h4.334c.643-.001 1.166-.524 1.166-1.168v-4.333c0-.643-.523-1.167-1.166-1.167zm-1.5 5.334h-1.334c-.368 0-.667-.299-.667-.667s.299-.667.667-.667h1.333c.369 0 .667.299.667.667s-.298.667-.666.667zm0-2h-1.334c-.368 0-.667-.299-.667-.667s.299-.667.667-.667h1.333c.369 0 .667.299.667.667s-.298.667-.666.667z" fill="#8ce1eb"/></svg>