<svg id="bold" enable-background="new 0 0 32 32" height="512" viewBox="0 0 32 32" width="512" xmlns="http://www.w3.org/2000/svg"><path d="m26 32h-20c-3.314 0-6-2.686-6-6v-20c0-3.314 2.686-6 6-6h20c3.314 0 6 2.686 6 6v20c0 3.314-2.686 6-6 6z" fill="#fff9dd"/><path d="m19.12 10.02-5.334-2c-.08-.027-.16-.027-.24 0l-5.334 2c-.126.047-.212.173-.212.313v4.287c0 6.08 5.54 7.36 5.594 7.373.026.007.046.007.073.007s.047 0 .073-.007c.013-.007.493-.113 1.167-.42-.153-.5-.24-1.027-.24-1.573 0-1.427.56-2.78 1.587-3.8.48-.487 1.153-.667 1.78-.553.127-.713.633-1.293 1.3-1.533v-3.78c-.001-.141-.087-.267-.214-.314z" fill="#ffd200"/><g fill="#ffe777"><path d="m20 19.333c-.368 0-.667-.299-.667-.667v-2.666c0-.368.298-.667.667-.667s.667.299.667.667v2.667c0 .368-.298.666-.667.666z"/><path d="m20 24c-2.206 0-4-1.794-4-4 0-1.072.424-2.087 1.195-2.858.26-.26.682-.26.943 0s.26.682 0 .943c-.519.519-.805 1.199-.805 1.915 0 1.47 1.196 2.667 2.667 2.667s2.667-1.196 2.667-2.667c0-.716-.286-1.396-.805-1.915-.26-.26-.26-.682 0-.943s.682-.26.943 0c.771.771 1.195 1.786 1.195 2.858 0 2.206-1.794 4-4 4z"/></g></svg>