<svg id="bold" enable-background="new 0 0 32 32" height="512" viewBox="0 0 32 32" width="512" xmlns="http://www.w3.org/2000/svg"><path d="m26 32h-20c-3.314 0-6-2.686-6-6v-20c0-3.314 2.686-6 6-6h20c3.314 0 6 2.686 6 6v20c0 3.314-2.686 6-6 6z" fill="#f5e6fe"/><path d="m19.12 10.02-5.334-2c-.08-.027-.16-.027-.24 0l-5.334 2c-.126.047-.212.173-.212.313v4.287c0 5.313 4.227 6.96 5.334 7.3v-4.087c0-1.38 1.12-2.5 2.5-2.5h1.347c.427 0 .833.147 1.153.407.273-.22.613-.36.973-.4.02-.233.027-.473.027-.72v-4.287c-.001-.14-.087-.266-.214-.313z" fill="#be63f9"/><path d="m20.834 24h-5.667c-.276 0-.5-.224-.5-.5v-5.667c0-.643.523-1.167 1.167-1.167h1.346c.179 0 .344.096.434.251.089.156.089.347-.002.501-.072.122-.111.27-.111.414 0 .46.374.833.833.833.46 0 .833-.374.833-.833 0-.145-.04-.292-.111-.414-.09-.155-.091-.346-.002-.501s.255-.251.434-.251h1.346c.643 0 1.167.523 1.167 1.167v.674c1.056-.089 2 .759 2 1.826s-.943 1.92-2 1.826v.674c-.001.644-.524 1.167-1.167 1.167z" fill="#d9a4fc"/></svg>