<svg id="bold" enable-background="new 0 0 32 32" height="512" viewBox="0 0 32 32" width="512" xmlns="http://www.w3.org/2000/svg"><path d="m26 32h-20c-3.314 0-6-2.686-6-6v-20c0-3.314 2.686-6 6-6h20c3.314 0 6 2.686 6 6v20c0 3.314-2.686 6-6 6z" fill="#fff9dd"/><path d="m19.667 15.333c-2.389 0-4.334 1.944-4.334 4.333s1.944 4.334 4.334 4.334 4.333-1.944 4.333-4.333-1.944-4.334-4.333-4.334zm1.805 5.196c.26.26.26.682 0 .943-.13.13-.301.195-.471.195s-.341-.065-.471-.195l-.862-.862-.862.862c-.13.13-.301.195-.471.195s-.341-.065-.471-.195c-.26-.26-.26-.682 0-.943l.862-.862-.862-.862c-.26-.26-.26-.682 0-.943s.682-.26.943 0l.862.862.862-.862c.26-.26.682-.26.943 0s.26.682 0 .943l-.862.862z" fill="#ffe777"/><path d="m19.12 10.02-5.334-2c-.08-.027-.16-.027-.24 0l-5.334 2c-.126.047-.212.173-.212.313v4.287c0 6.08 5.54 7.36 5.594 7.373.026.007.046.007.073.007s.047 0 .073-.007c.013 0 .273-.06.673-.213-.266-.653-.413-1.367-.413-2.113 0-3.013 2.36-5.487 5.334-5.66v-3.673c-.001-.141-.087-.267-.214-.314z" fill="#ffd200"/></svg>