<svg id="bold" enable-background="new 0 0 32 32" height="512" viewBox="0 0 32 32" width="512" xmlns="http://www.w3.org/2000/svg"><path d="m26 32h-20c-3.314 0-6-2.686-6-6v-20c0-3.314 2.686-6 6-6h20c3.314 0 6 2.686 6 6v20c0 3.314-2.686 6-6 6z" fill="#ffe6e2"/><path d="m19.12 10.02-5.334-2c-.08-.027-.16-.027-.24 0l-5.334 2c-.126.047-.212.173-.212.313v4.287c0 6.08 5.54 7.36 5.594 7.373.026.007.046.007.073.007s.047 0 .073-.007c.02-.007.627-.14 1.433-.547-.327-.633-.507-1.353-.507-2.113 0-2.573 2.093-4.667 4.667-4.667v-4.333c0-.14-.086-.266-.213-.313z" fill="#fc573b"/><path d="m23.805 22.862-1.693-1.693c.349-.527.555-1.157.555-1.835 0-1.838-1.496-3.333-3.333-3.333s-3.334 1.494-3.334 3.332 1.496 3.333 3.333 3.333c.678 0 1.308-.206 1.835-.555l1.693 1.693c.26.26.682.26.943 0 .262-.26.262-.682.001-.942zm-4.472-1.529c-1.103 0-2-.897-2-2s.897-2 2-2 2 .897 2 2c.001 1.103-.897 2-2 2z" fill="#fd907e"/></svg>