<svg id="bold" enable-background="new 0 0 32 32" height="512" viewBox="0 0 32 32" width="512" xmlns="http://www.w3.org/2000/svg"><path d="m26 32h-20c-3.314 0-6-2.686-6-6v-20c0-3.314 2.686-6 6-6h20c3.314 0 6 2.686 6 6v20c0 3.314-2.686 6-6 6z" fill="#f5e6fe"/><path d="m19.087 10.02-5.334-2c-.08-.027-.16-.027-.24 0l-5.334 2c-.127.047-.213.173-.213.313v4.287c0 6.08 5.54 7.36 5.594 7.373.027.007.047.007.073.007s.047 0 .073-.007c.027-.007 1.373-.313 2.74-1.353-.4-.527-.467-1.247-.127-1.84l.54-.933c.347-.6 1.027-.913 1.687-.813.12-.307.327-.567.593-.747.107-.513.16-1.073.16-1.687v-4.287c.001-.14-.085-.266-.212-.313z" fill="#be63f9"/><path d="m23.102 20.98c.013-.104.032-.206.032-.313s-.018-.209-.032-.313l.6-.454c.134-.101.172-.287.087-.432l-.539-.934c-.084-.146-.263-.206-.418-.14l-.691.292c-.168-.128-.348-.242-.546-.325l-.092-.734c-.021-.167-.163-.292-.331-.292h-1.078c-.168 0-.31.125-.331.292l-.092.734c-.198.083-.378.196-.546.325l-.691-.292c-.155-.065-.334-.005-.418.14l-.539.934c-.084.146-.047.331.087.432l.6.454c-.013.104-.032.206-.032.313s.018.209.032.313l-.6.454c-.134.101-.172.287-.087.432l.539.934c.084.146.263.206.418.14l.691-.292c.168.128.348.242.546.325l.092.734c.022.168.164.293.332.293h1.078c.168 0 .31-.125.331-.292l.092-.734c.198-.083.378-.196.546-.325l.691.292c.155.065.334.005.418-.14l.539-.934c.084-.146.047-.331-.087-.432zm-2.468 1.02c-.736 0-1.333-.597-1.333-1.333s.597-1.333 1.333-1.333 1.333.597 1.333 1.333-.597 1.333-1.333 1.333z" fill="#d9a4fc"/></svg>