<svg id="bold" enable-background="new 0 0 32 32" height="512" viewBox="0 0 32 32" width="512" xmlns="http://www.w3.org/2000/svg"><path d="m26 32h-20c-3.314 0-6-2.686-6-6v-20c0-3.314 2.686-6 6-6h20c3.314 0 6 2.686 6 6v20c0 3.314-2.686 6-6 6z" fill="#f5e6fe"/><path d="m19.12 10.02-5.334-2c-.08-.027-.16-.027-.24 0l-5.334 2c-.126.047-.212.173-.212.313v4.287c0 6.08 5.54 7.36 5.594 7.373.026.007.046.007.073.007s.047 0 .073-.007c.02-.007.86-.2 1.887-.787-.187-.366-.294-.773-.294-1.206 0-1.473 1.193-2.667 2.667-2.667.267 0 .513.053.753.12l.127-.073c.287-.787.453-1.7.453-2.76v-4.287c0-.14-.086-.266-.213-.313z" fill="#be63f9"/><path d="m22.667 21.333c-.31 0-.592.111-.819.289l-2.534-1.43c.009-.064.02-.127.02-.193 0-.061-.01-.119-.018-.178l2.533-1.444c.227.178.508.288.818.288.735 0 1.333-.598 1.333-1.333s-.598-1.332-1.333-1.332-1.333.598-1.333 1.333c0 .061.01.119.018.178l-2.533 1.444c-.227-.178-.508-.288-.818-.288-.735 0-1.333.598-1.333 1.333s.598 1.333 1.333 1.333c.304 0 .582-.106.806-.279l2.545 1.436c-.008.058-.018.116-.018.176 0 .735.598 1.333 1.333 1.333s1.333-.597 1.333-1.332-.598-1.334-1.333-1.334z" fill="#d9a4fc"/></svg>