<svg id="bold" enable-background="new 0 0 32 32" height="512" viewBox="0 0 32 32" width="512" xmlns="http://www.w3.org/2000/svg"><path d="m26 32h-20c-3.314 0-6-2.686-6-6v-20c0-3.314 2.686-6 6-6h20c3.314 0 6 2.686 6 6v20c0 3.314-2.686 6-6 6z" fill="#e3f8fa"/><path d="m19.667 15.333c-2.389 0-4.334 1.944-4.334 4.333s1.944 4.334 4.334 4.334 4.333-1.944 4.333-4.333-1.944-4.334-4.333-4.334zm2.87 2.667h-1.203v-1.203c.499.291.911.704 1.203 1.203zm.463 1.667c0 .228-.023.451-.067.667h-1.599v-1.334h1.599c.044.216.067.438.067.667zm-6.667 0c0-.228.023-.451.067-.667h1.6v1.333h-1.599c-.044-.215-.068-.438-.068-.666zm2.667-.667h1.333v1.333h-1.333zm1.334-2.599v1.599h-1.334v-1.599c.216-.044.438-.067.667-.067s.451.023.667.067zm-2.334.396v1.203h-1.203c.291-.499.704-.912 1.203-1.203zm-1.203 4.536h1.203v1.203c-.499-.291-.912-.703-1.203-1.203zm2.203 1.6v-1.599h1.333v1.599c-.215.044-.438.067-.666.067s-.451-.023-.667-.067zm2.334-.397v-1.203h1.203c-.292.5-.704.912-1.203 1.203z" fill="#8ce1eb"/><path d="m19.12 10.02-5.334-2c-.08-.027-.16-.027-.24 0l-5.334 2c-.126.047-.212.173-.212.313v4.287c0 6.08 5.54 7.36 5.594 7.373.026.007.046.007.073.007s.047 0 .073-.007c.013 0 .273-.06.673-.213-.266-.653-.413-1.367-.413-2.113 0-3.013 2.36-5.487 5.334-5.66v-3.673c-.001-.141-.087-.267-.214-.314z" fill="#26c6da"/></svg>