<svg id="bold" enable-background="new 0 0 32 32" height="512" viewBox="0 0 32 32" width="512" xmlns="http://www.w3.org/2000/svg"><g><path d="m26 32h-20c-3.314 0-6-2.686-6-6v-20c0-3.314 2.686-6 6-6h20c3.314 0 6 2.686 6 6v20c0 3.314-2.686 6-6 6z" fill="#fff9dd"/><path d="m19.12 10.02-5.334-2c-.08-.027-.16-.027-.24 0l-5.334 2c-.126.047-.212.173-.212.313v4.287c0 6.08 5.54 7.36 5.594 7.373.026.007.046.007.073.007s.047 0 .073-.007c.02-.007.667-.153 1.513-.587-.36-.36-.587-.86-.587-1.407 0-.52.213-1.033.58-1.407l3.467-3.4c.18-.18.387-.313.613-.4.007-.06.007-.113.007-.173v-4.287c0-.139-.086-.265-.213-.312z" fill="#ffd200"/><path d="m22.167 24h-4.334c-.276 0-.5-.224-.5-.5v-2.84h-.673c-.364 0-.66-.296-.66-.66 0-.173.07-.343.192-.466l3.458-3.391c.194-.191.506-.191.7 0l3.452 3.385c.128.129.198.299.198.472 0 .364-.296.66-.66.66h-.674v2.84c.001.276-.223.5-.499.5z" fill="#ffe777"/></g></svg>