<svg id="bold" enable-background="new 0 0 32 32" height="512" viewBox="0 0 32 32" width="512" xmlns="http://www.w3.org/2000/svg"><path d="m26 32h-20c-3.314 0-6-2.686-6-6v-20c0-3.314 2.686-6 6-6h20c3.314 0 6 2.686 6 6v20c0 3.314-2.686 6-6 6z" fill="#fff9dd"/><path d="m13.667 22c-.024 0-.048-.003-.071-.008-.057-.012-5.596-1.294-5.596-7.373v-4.286c0-.139.086-.263.216-.312l5.334-2c.076-.028.159-.028.234 0l5.334 2c.13.049.216.173.216.312v4.286c0 6.079-5.54 7.361-5.596 7.373-.024.005-.048.008-.071.008z" fill="#ffd200"/><g fill="#ffe777"><path d="m21.334 20.667c-.735 0-1.333-.598-1.333-1.333s.597-1.334 1.333-1.334c.735 0 1.333.598 1.333 1.333s-.598 1.334-1.333 1.334z"/><path d="m23.5 24h-4.334c-.276 0-.5-.224-.5-.5v-.333c0-1.011.822-1.833 1.833-1.833h1.667c1.011 0 1.833.822 1.833 1.833v.333c.001.276-.223.5-.499.5z"/></g></svg>