<svg id="bold" enable-background="new 0 0 32 32" height="512" viewBox="0 0 32 32" width="512" xmlns="http://www.w3.org/2000/svg"><path d="m26 32h-20c-3.314 0-6-2.686-6-6v-20c0-3.314 2.686-6 6-6h20c3.314 0 6 2.686 6 6v20c0 3.314-2.686 6-6 6z" fill="#ffe6e2"/><path d="m19.12 10.02-5.334-2c-.08-.027-.16-.027-.24 0l-5.334 2c-.126.047-.212.173-.212.313v4.287c0 6.08 5.54 7.36 5.594 7.373.026.007.046.007.073.007s.047 0 .073-.007c.007 0 .1-.027.26-.073v-3.42c0-1.013.82-1.833 1.833-1.833h3.26c.153-.613.24-1.293.24-2.047v-4.287c0-.14-.086-.266-.213-.313z" fill="#fc573b"/><g fill="#fd907e"><path d="m20.334 22h3.666v1.5c0 .276-.224.5-.5.5h-3.167v-2z"/><path d="m17.333 21.333h-2v-2.833c0-.276.224-.5.5-.5h1.5z"/><path d="m22 18h1.5c.276 0 .5.224.5.5v2.833h-2z"/><path d="m18.667 18h2v3.333h-2z"/><path d="m19 24h-3.167c-.276 0-.5-.224-.5-.5v-1.5h3.667z"/></g></svg>