<svg id="bold" enable-background="new 0 0 32 32" height="512" viewBox="0 0 32 32" width="512" xmlns="http://www.w3.org/2000/svg"><path d="m26 32h-20c-3.314 0-6-2.686-6-6v-20c0-3.314 2.686-6 6-6h20c3.314 0 6 2.686 6 6v20c0 3.314-2.686 6-6 6z" fill="#e3f8fa"/><path d="m15.385 12.706c-2.352.302-4.052 2.419-4.052 4.79v1.837h9.334v-2c0-2.775-2.436-4.993-5.282-4.627zm.615 2.627c-1.103 0-2 .897-2 2 0 .369-.298.667-.667.667s-.667-.299-.667-.667c.001-1.838 1.496-3.333 3.334-3.333.369 0 .667.299.667.667s-.298.666-.667.666z" fill="#26c6da"/><g fill="#8ce1eb"><path d="m16 11.333c-.369 0-.667-.299-.667-.667v-2c0-.368.298-.666.667-.666s.667.299.667.667v2c0 .368-.298.666-.667.666z"/><path d="m12 12.667c-.171 0-.341-.065-.471-.195l-1.414-1.414c-.26-.26-.26-.682 0-.943.26-.26.682-.26.943 0l1.414 1.414c.26.26.26.682 0 .943-.131.13-.302.195-.472.195z"/><path d="m20 12.667c-.171 0-.341-.065-.471-.195-.26-.26-.26-.682 0-.943l1.414-1.414c.26-.26.682-.26.943 0 .26.26.26.682 0 .943l-1.414 1.414c-.131.13-.301.195-.472.195z"/><path d="m9.333 16.667h-.667c-.368 0-.666-.299-.666-.667s.298-.667.667-.667h.667c.368 0 .666.299.666.667s-.298.667-.667.667z"/><path d="m23.334 16.667h-.834c-.369 0-.667-.299-.667-.667s.298-.667.667-.667h.833c.369 0 .667.299.667.667s-.298.667-.666.667z"/></g><path d="m22.834 24h-13.668c-.643 0-1.166-.523-1.166-1.167v-1c0-.643.523-1.167 1.167-1.167h13.667c.643 0 1.167.523 1.167 1.167v1c-.001.644-.524 1.167-1.167 1.167z" fill="#26c6da"/></svg>