<svg id="bold" enable-background="new 0 0 32 32" height="512" viewBox="0 0 32 32" width="512" xmlns="http://www.w3.org/2000/svg"><path d="m26 32h-20c-3.314 0-6-2.686-6-6v-20c0-3.314 2.686-6 6-6h20c3.314 0 6 2.686 6 6v20c0 3.314-2.686 6-6 6z" fill="#e3f8fa"/><path d="m18.667 14.093c-.04-.793-.7-1.427-1.5-1.427h-.5v-1.333c0-1.838-1.496-3.333-3.334-3.333s-3.333 1.495-3.333 3.333v1.333h-.5c-.827 0-1.5.673-1.5 1.5v5.667c0 .827.673 1.5 1.5 1.5h4.747c-.16-.526-.247-1.086-.247-1.666 0-2.787 2.013-5.107 4.667-5.574zm-7.334-1.426v-1.333c0-1.103.897-2 2-2s2 .897 2 2v1.333z" fill="#26c6da"/><path d="m19.667 15.333c-2.389 0-4.334 1.944-4.334 4.333s1.944 4.334 4.334 4.334 4.333-1.944 4.333-4.333-1.944-4.334-4.333-4.334zm2.168 3.273-2.333 2.667c-.121.139-.295.221-.48.227-.007 0-.015 0-.022 0-.176 0-.346-.07-.471-.195l-1.333-1.333c-.26-.26-.26-.682 0-.943s.682-.26.943 0l.829.829 1.864-2.131c.243-.276.664-.305.941-.063.277.244.305.664.062.942z" fill="#8ce1eb"/></svg>