<svg id="bold" enable-background="new 0 0 32 32" height="512" viewBox="0 0 32 32" width="512" xmlns="http://www.w3.org/2000/svg"><path d="m26 32h-20c-3.314 0-6-2.686-6-6v-20c0-3.314 2.686-6 6-6h20c3.314 0 6 2.686 6 6v20c0 3.314-2.686 6-6 6z" fill="#fff9dd"/><path d="m17.167 12.667h-.5v-1.333c0-1.839-1.496-3.334-3.334-3.334s-3.333 1.495-3.333 3.333v1.333h-.5c-.827 0-1.5.673-1.5 1.5v5.667c0 .827.673 1.5 1.5 1.5h5.954c.067-.093.153-.187.247-.28.013-.02.033-.04.053-.053l-1.78-1.787c-.76-.753-.76-1.987-.007-2.74.753-.76 1.987-.76 2.747 0l.686.687c.22-.127.467-.207.72-.233.04-.053.093-.107.14-.16.127-.127.26-.227.407-.307v-2.293c0-.827-.674-1.5-1.5-1.5zm-5.834 0v-1.333c0-1.103.897-2 2-2s2 .897 2 2v1.333z" fill="#ffd200"/><path d="m20.489 16.999c-.236.236-.235.621.002.858l.215.215c.04.04.04.104 0 .143s-.103.039-.143 0l-.502-.502c-.238-.238-.622-.239-.858-.002-.236.236-.235.621.002.858l.502.502c.04.04.04.104 0 .143s-.103.039-.143 0l-.789-.789c-.238-.238-.622-.239-.858-.002-.236.236-.235.621.002.858l.789.789c.04.04.04.104 0 .143s-.103.039-.143 0l-2.798-2.798c-.238-.238-.622-.239-.858-.002-.236.236-.235.621.002.858l3.367 3.367c-.441-.069-1.184-.098-1.64.358-.428.428-.417.724-.284.858.362.362.641-.21 2.29.578s2.71.724 3.434.01l.999-.999c.005-.005-.005.005 0 0 1.015-1.015 1.306-2.403.282-3.428-.002-.002-.003-.003-.005-.005l-2.009-2.009c-.235-.237-.619-.238-.856-.002z" fill="#ffe777"/></svg>