<svg id="bold" enable-background="new 0 0 32 32" height="512" viewBox="0 0 32 32" width="512" xmlns="http://www.w3.org/2000/svg"><path d="m26 32h-20c-3.314 0-6-2.686-6-6v-20c0-3.314 2.686-6 6-6h20c3.314 0 6 2.686 6 6v20c0 3.314-2.686 6-6 6z" fill="#f5e6fe"/><path d="m17.167 12.667h-.5v-1.333c0-1.839-1.496-3.334-3.334-3.334s-3.333 1.495-3.333 3.333v1.333h-.5c-.827 0-1.5.673-1.5 1.5v5.667c0 .827.673 1.5 1.5 1.5h3.207c.193-1.227 1.033-2.253 2.187-2.7.673-1.467 2.127-2.5 3.774-2.62v-1.847c-.001-.826-.675-1.499-1.501-1.499zm-5.834 0v-1.333c0-1.103.897-2 2-2s2 .897 2 2v1.333z" fill="#be63f9"/><path d="m21.435 24h-5.275c-1.191 0-2.16-.957-2.16-2.133 0-1.094.838-1.998 1.914-2.119.331-1.394 1.612-2.414 3.087-2.414 1.161 0 2.232.632 2.782 1.627 1.258.163 2.217 1.229 2.217 2.506 0 1.397-1.15 2.533-2.565 2.533z" fill="#d9a4fc"/></svg>