<svg id="bold" enable-background="new 0 0 32 32" height="512" viewBox="0 0 32 32" width="512" xmlns="http://www.w3.org/2000/svg"><path d="m26 32h-20c-3.314 0-6-2.686-6-6v-20c0-3.314 2.686-6 6-6h20c3.314 0 6 2.686 6 6v20c0 3.314-2.686 6-6 6z" fill="#fff9dd"/><path d="m20.334 19.667c-1.013 0-1.833-.82-1.833-1.833 0-.62.313-1.167.787-1.5-.473-.333-.787-.88-.787-1.5 0-.94.713-1.72 1.627-1.82-.26-.22-.593-.347-.96-.347h-.5v-1.333c0-1.47-1.196-2.667-2.667-2.667s-2.667 1.196-2.667 2.667v1.333h-.5c-.367 0-.7.127-.96.347.913.1 1.627.88 1.627 1.82 0 .62-.313 1.167-.787 1.5.473.333.787.88.787 1.5 0 1.013-.82 1.833-1.833 1.833h-.248c.207.58.76 1 1.413 1h6.334c.653 0 1.207-.42 1.413-1zm-5.667-8.334c0-.735.598-1.333 1.333-1.333s1.333.598 1.333 1.333v1.333h-2.667v-1.333z" fill="#ffd200"/><g fill="#ffe777"><path d="m20.334 15.333h1.666c.643 0 1.167-.523 1.167-1.167v-2.933c.488-.197.833-.675.833-1.233 0-.735-.598-1.333-1.333-1.333s-1.333.598-1.333 1.333c0 .558.346 1.036.833 1.234v2.933c0 .092-.075.167-.167.167h-1.667c-.276 0-.5.224-.5.5s.224.499.501.499z"/><path d="m23.167 20.766v-2.266c0-.643-.523-1.167-1.167-1.167h-1.667c-.276 0-.5.224-.5.5s.224.5.5.5h1.667c.092 0 .167.075.167.167v2.266c-.488.198-.833.676-.833 1.234 0 .735.598 1.333 1.333 1.333s1.333-.598 1.333-1.333c0-.558-.345-1.036-.833-1.234z"/><path d="m11.666 14.333h-1.666c-.092 0-.167-.075-.167-.167v-2.933c.488-.198.833-.676.833-1.234 0-.735-.598-1.333-1.333-1.333s-1.333.599-1.333 1.334c0 .558.346 1.036.833 1.234v2.933c0 .643.523 1.167 1.167 1.167h1.667c.276 0 .5-.224.5-.5s-.224-.501-.501-.501z"/><path d="m11.666 17.333h-1.666c-.643 0-1.167.523-1.167 1.167v2.266c-.488.198-.833.676-.833 1.234 0 .735.598 1.333 1.333 1.333s1.333-.598 1.333-1.333c0-.558-.346-1.036-.833-1.234v-2.266c0-.092.075-.167.167-.167h1.667c.276 0 .5-.224.5-.5-.001-.276-.224-.5-.501-.5z"/></g></svg>