<svg id="bold" enable-background="new 0 0 32 32" height="512" viewBox="0 0 32 32" width="512" xmlns="http://www.w3.org/2000/svg"><path d="m26 32h-20c-3.314 0-6-2.686-6-6v-20c0-3.314 2.686-6 6-6h20c3.314 0 6 2.686 6 6v20c0 3.314-2.686 6-6 6z" fill="#f5e6fe"/><path d="m17.167 12.667h-.5v-1.333c0-1.839-1.496-3.334-3.334-3.334s-3.333 1.495-3.333 3.333v1.333h-.5c-.827 0-1.5.673-1.5 1.5v5.667c0 .827.673 1.5 1.5 1.5h6.167v-.68c-.687-.067-1.293-.513-1.547-1.16-.267-.7-.073-1.513.48-2.02l1.833-1.667c.633-.567 1.547-.633 2.233-.173v-1.467c.001-.826-.673-1.499-1.499-1.499zm-5.834 0v-1.333c0-1.103.897-2 2-2s2 .897 2 2v1.333z" fill="#be63f9"/><g fill="#d9a4fc"><path d="m19.836 18.463-1.833-1.667c-.191-.173-.482-.173-.673 0l-1.833 1.667c-.153.139-.204.358-.13.55.075.193.26.32.466.32h1.167v4c0 .369.299.667.667.667s.667-.299.667-.667v-4h1.166c.207 0 .392-.127.466-.32.075-.192.023-.411-.13-.55z"/><path d="m23.967 21.653c-.075-.193-.26-.32-.466-.32h-1.167v-4c0-.368-.299-.667-.667-.667s-.667.299-.667.667v4h-1.167c-.207 0-.392.127-.466.32s-.023.411.13.55l1.833 1.667c.095.087.216.13.336.13s.241-.043.336-.13l1.833-1.667c.155-.139.206-.357.132-.55z"/></g></svg>