<svg id="bold" enable-background="new 0 0 32 32" height="512" viewBox="0 0 32 32" width="512" xmlns="http://www.w3.org/2000/svg"><path d="m26 32h-20c-3.314 0-6-2.686-6-6v-20c0-3.314 2.686-6 6-6h20c3.314 0 6 2.686 6 6v20c0 3.314-2.686 6-6 6z" fill="#ffe6e2"/><path d="m17.167 12.667h-.5v-1.333c0-1.839-1.496-3.334-3.334-3.334s-3.333 1.495-3.333 3.333v1.333h-.5c-.827 0-1.5.673-1.5 1.5v5.667c0 .827.673 1.5 1.5 1.5h4.634c-.48-.32-.8-.873-.8-1.5 0-.707.407-1.32 1-1.627-.393-.56-.453-1.32-.087-1.953.24-.427.633-.727 1.107-.86.267-.067.533-.073.793-.027.32-.953 1.193-1.693 2.327-1.94-.261-.453-.747-.759-1.307-.759zm-5.834 0v-1.333c0-1.103.897-2 2-2s2 .897 2 2v1.333z" fill="#fc573b"/><path d="m23.5 19.333h-.883c-.063-.448-.185-.872-.361-1.256l.827-.478c.239-.138.321-.444.183-.683-.137-.239-.443-.322-.683-.183l-.852.492c-.16-.199-.335-.379-.525-.535.08-.165.128-.341.128-.524 0-.841-.878-1.5-2-1.5s-2 .659-2 1.5c0 .184.048.359.128.524-.191.156-.366.336-.525.535l-.852-.492c-.24-.139-.546-.056-.683.183-.138.239-.056.545.183.683l.827.478c-.176.384-.298.808-.361 1.256h-.883c-.276 0-.5.224-.5.5s.224.5.5.5h.847c.039.572.177 1.111.396 1.589l-.828.478c-.239.138-.321.444-.183.683s.443.322.683.183l.852-.492c.607.755 1.456 1.226 2.398 1.226s1.792-.471 2.398-1.226l.852.492c.24.139.546.056.683-.183.138-.239.056-.545-.183-.683l-.827-.477c.219-.479.357-1.017.396-1.589h.848c.276 0 .5-.224.5-.5s-.224-.501-.5-.501z" fill="#fd907e"/></svg>