<svg id="bold" enable-background="new 0 0 32 32" height="512" viewBox="0 0 32 32" width="512" xmlns="http://www.w3.org/2000/svg"><path d="m26 32h-20c-3.314 0-6-2.686-6-6v-20c0-3.314 2.686-6 6-6h20c3.314 0 6 2.686 6 6v20c0 3.314-2.686 6-6 6z" fill="#fff9dd"/><path d="m17.173 12.672h-.5v-1.333c0-1.838-1.496-3.333-3.334-3.333s-3.333 1.495-3.333 3.333v1.333h-.5c-.827 0-1.5.673-1.5 1.5v5.667c0 .827.673 1.5 1.5 1.5h6.887l-1.72-1.72c-.66-.653-1.027-1.533-1.027-2.473s.373-1.82 1.04-2.48c.607-.62 1.5-.987 2.44-.993h.02c.533 0 1.053.12 1.52.34-.08-.754-.72-1.341-1.493-1.341zm-5.834 0v-1.333c0-1.103.897-2 2-2s2 .897 2 2v1.333z" fill="#ffd200"/><g fill="#ffe777"><path d="m19.326 21.495c-.556 0-1.11-.215-1.533-.638l-2.174-2.181c-.41-.405-.636-.949-.636-1.529 0-.581.227-1.125.639-1.533.79-.807 2.239-.817 3.059.002l.373.374c.195.195.195.512 0 .707-.196.195-.512.194-.707 0l-.373-.373c-.439-.439-1.218-.438-1.643-.004-.227.224-.348.515-.348.827s.122.603.342.821l2.175 2.182c.426.426 1.098.46 1.563.079.212-.174.529-.144.703.07.175.214.144.529-.07.704-.402.33-.887.492-1.37.492z"/><path d="m21.863 24.029c-.581 0-1.125-.227-1.533-.638l-.358-.359c-.195-.195-.195-.512.001-.707s.513-.195.708.001l.359.36c.219.222.511.343.823.343.312 0 .603-.121.821-.341.224-.222.346-.513.346-.825s-.121-.603-.342-.821l-2.176-2.183c-.41-.41-1.121-.443-1.561-.081-.212.175-.527.146-.704-.067-.176-.213-.146-.528.067-.704.82-.678 2.143-.617 2.905.145l2.174 2.181c.41.405.636.949.636 1.53 0 .58-.227 1.124-.639 1.532-.402.407-.946.634-1.527.634z"/></g></svg>