<svg id="bold" enable-background="new 0 0 32 32" height="512" viewBox="0 0 32 32" width="512" xmlns="http://www.w3.org/2000/svg"><path d="m26 32h-20c-3.314 0-6-2.686-6-6v-20c0-3.314 2.686-6 6-6h20c3.314 0 6 2.686 6 6v20c0 3.314-2.686 6-6 6z" fill="#ffe6e2"/><path d="m17.167 12.667h-.5v-1.333c0-1.839-1.496-3.334-3.334-3.334s-3.333 1.495-3.333 3.333v1.333h-.5c-.827 0-1.5.673-1.5 1.5v5.667c0 .827.673 1.5 1.5 1.5h7.174c-.4-.807-.673-1.7-.673-2.627 0-1.873 1.093-3.493 2.667-4.247v-.293c-.001-.826-.675-1.499-1.501-1.499zm-5.834-1.334c0-1.103.897-2 2-2s2 .897 2 2v1.333h-4z" fill="#fc573b"/><path d="m20.667 15.333c-1.838 0-3.333 1.514-3.333 3.375 0 2.568 2.886 5.066 3.008 5.172.094.08.209.12.325.12s.231-.04.325-.12c.123-.105 3.008-2.603 3.008-5.172 0-1.861-1.495-3.375-3.333-3.375zm0 4.667c-.735 0-1.333-.598-1.333-1.333s.598-1.333 1.333-1.333 1.333.598 1.333 1.333-.598 1.333-1.333 1.333z" fill="#fd907e"/></svg>