<svg id="bold" enable-background="new 0 0 32 32" height="512" viewBox="0 0 32 32" width="512" xmlns="http://www.w3.org/2000/svg"><path d="m26 32h-20c-3.314 0-6-2.686-6-6v-20c0-3.314 2.686-6 6-6h20c3.314 0 6 2.686 6 6v20c0 3.314-2.686 6-6 6z" fill="#e3f8fa"/><path d="m17.167 12.667h-.5v-1.333c0-1.839-1.496-3.334-3.334-3.334s-3.333 1.495-3.333 3.333v1.333h-.5c-.827 0-1.5.673-1.5 1.5v5.667c0 .827.673 1.5 1.5 1.5h4.5v-2.167c0-1.38 1.12-2.5 2.5-2.5h2.167v-2.5c0-.826-.674-1.499-1.5-1.499zm-5.834 0v-1.333c0-1.103.897-2 2-2s2 .897 2 2v1.333z" fill="#26c6da"/><g fill="#8ce1eb"><path d="m19.667 20.914 4.066-2.482c-.214-.261-.536-.432-.899-.432h-6.334c-.364 0-.685.171-.899.432z"/><path d="m19.927 21.927c-.08.049-.17.073-.26.073s-.181-.024-.26-.073l-4.073-2.486v3.393c0 .643.523 1.167 1.167 1.167h6.334c.642-.001 1.165-.524 1.165-1.168v-3.393z"/></g></svg>