<svg id="bold" enable-background="new 0 0 32 32" height="512" viewBox="0 0 32 32" width="512" xmlns="http://www.w3.org/2000/svg"><path d="m26 32h-20c-3.314 0-6-2.686-6-6v-20c0-3.314 2.686-6 6-6h20c3.314 0 6 2.686 6 6v20c0 3.314-2.686 6-6 6z" fill="#ffe6e2"/><path d="m17.167 12.667h-.5v-1.333c0-1.839-1.496-3.334-3.334-3.334s-3.333 1.495-3.333 3.333v1.333h-.5c-.827 0-1.5.673-1.5 1.5v5.667c0 .827.673 1.5 1.5 1.5h6.5v-2.833c0-.973.56-1.82 1.373-2.233.14-.693.64-1.253 1.293-1.487v-.613c.001-.827-.673-1.5-1.499-1.5zm-5.834-1.334c0-1.103.897-2 2-2s2 .897 2 2v1.333h-4z" fill="#fc573b"/><path d="m22.834 17.333h-.167v-.667c0-.367-.299-.666-.667-.666s-.667.299-.667.667v.667h-1.333v-.667c0-.368-.298-.667-.667-.667-.368 0-.667.299-.667.667v.667h-.166c-.643 0-1.167.523-1.167 1.167v4.333c0 .643.523 1.167 1.167 1.167h4.334c.643-.001 1.166-.524 1.166-1.168v-4.333c0-.643-.523-1.167-1.166-1.167zm-1.5 5.334h-1.334c-.368 0-.667-.299-.667-.667s.299-.667.667-.667h1.333c.369 0 .667.299.667.667s-.298.667-.666.667zm0-2h-1.334c-.368 0-.667-.299-.667-.667s.299-.667.667-.667h1.333c.369 0 .667.299.667.667s-.298.667-.666.667z" fill="#fd907e"/></svg>