<svg id="bold" enable-background="new 0 0 32 32" height="512" viewBox="0 0 32 32" width="512" xmlns="http://www.w3.org/2000/svg"><path d="m26 32h-20c-3.314 0-6-2.686-6-6v-20c0-3.314 2.686-6 6-6h20c3.314 0 6 2.686 6 6v20c0 3.314-2.686 6-6 6z" fill="#fff9dd"/><path d="m13.167 18h3.667c.643 0 1.166-.523 1.166-1.167v-2.333c0-.643-.523-1.167-1.167-1.167h-.167v-1c0-.919-.747-1.667-1.667-1.667-.919 0-1.667.747-1.667 1.667v1h-.167c-.642 0-1.165.524-1.165 1.167v2.333c0 .644.523 1.167 1.167 1.167zm1.166-5.667c0-.368.299-.667.667-.667s.667.299.667.667v1h-1.333v-1z" fill="#ffe777"/><path d="m22.328 8.121c-.098-.062-.206-.107-.328-.107h-10.667c-1.103 0-2 .897-2 2v9.333h-.667c-.368 0-.666.299-.666.667v1.972c0 1.103.897 2 2 2h8.334.001c1.286-.001 2.332-1.047 2.332-2.333v-9.639h2.667c.369 0 .667-.299.667-.667v-1c-.001-1.055-.71-1.939-1.673-2.226zm-2.995 2.226v1 10.305c0 .551-.449 1-1 1s-1-.449-1-1v-1.639c0-.368-.298-.667-.667-.667h-6v-9.333c0-.368.299-.667.667-.667h8.234c-.145.306-.234.642-.234 1.001z" fill="#ffd200"/></svg>