<svg id="bold" enable-background="new 0 0 32 32" height="512" viewBox="0 0 32 32" width="512" xmlns="http://www.w3.org/2000/svg"><path d="m26 32h-20c-3.314 0-6-2.686-6-6v-20c0-3.314 2.686-6 6-6h20c3.314 0 6 2.686 6 6v20c0 3.314-2.686 6-6 6z" fill="#f5e6fe"/><path d="m17.167 12.667h-.5v-1.333c0-1.839-1.496-3.334-3.334-3.334s-3.333 1.495-3.333 3.333v1.333h-.5c-.827 0-1.5.673-1.5 1.5v5.667c0 .827.673 1.5 1.5 1.5h5.334c-.107-.427-.167-.873-.167-1.333 0-1.427.56-2.78 1.587-3.8.48-.487 1.153-.667 1.78-.553.08-.447.307-.84.633-1.133v-.347c0-.827-.674-1.5-1.5-1.5zm-5.834 0v-1.333c0-1.103.897-2 2-2s2 .897 2 2v1.333z" fill="#be63f9"/><g fill="#d9a4fc"><path d="m20 19.333c-.368 0-.667-.299-.667-.667v-2.666c0-.368.298-.667.667-.667s.667.299.667.667v2.667c0 .368-.298.666-.667.666z"/><path d="m20 24c-2.206 0-4-1.794-4-4 0-1.072.424-2.087 1.195-2.858.26-.26.682-.26.943 0s.26.682 0 .943c-.519.519-.805 1.199-.805 1.915 0 1.47 1.196 2.667 2.667 2.667s2.667-1.196 2.667-2.667c0-.716-.286-1.396-.805-1.915-.26-.26-.26-.682 0-.943s.682-.26.943 0c.771.771 1.195 1.786 1.195 2.858 0 2.206-1.794 4-4 4z"/></g></svg>