<svg id="bold" enable-background="new 0 0 32 32" height="512" viewBox="0 0 32 32" width="512" xmlns="http://www.w3.org/2000/svg"><path d="m26 32h-20c-3.314 0-6-2.686-6-6v-20c0-3.314 2.686-6 6-6h20c3.314 0 6 2.686 6 6v20c0 3.314-2.686 6-6 6z" fill="#fff9dd"/><path d="m17.167 12.667h-.5v-1.333c0-1.839-1.496-3.334-3.334-3.334s-3.333 1.495-3.333 3.333v1.333h-.5c-.827 0-1.5.673-1.5 1.5v5.667c0 .827.673 1.5 1.5 1.5h3.834v-3.5c0-1.38 1.12-2.5 2.5-2.5h1.347c.427 0 .833.147 1.153.407.1-.087.213-.153.333-.213v-1.36c0-.827-.674-1.5-1.5-1.5zm-5.834 0v-1.333c0-1.103.897-2 2-2s2 .897 2 2v1.333z" fill="#ffd200"/><path d="m20.834 24h-5.667c-.276 0-.5-.224-.5-.5v-5.667c0-.643.523-1.167 1.167-1.167h1.346c.179 0 .344.096.434.251.089.156.089.347-.002.501-.072.122-.111.27-.111.414 0 .46.374.833.833.833.46 0 .833-.374.833-.833 0-.145-.04-.292-.111-.414-.09-.155-.091-.346-.002-.501s.255-.251.434-.251h1.346c.643 0 1.167.523 1.167 1.167v.674c1.056-.089 2 .759 2 1.826s-.943 1.92-2 1.826v.674c-.001.644-.524 1.167-1.167 1.167z" fill="#ffe777"/></svg>