<svg id="bold" enable-background="new 0 0 32 32" height="512" viewBox="0 0 32 32" width="512" xmlns="http://www.w3.org/2000/svg"><path d="m26 32h-20c-3.314 0-6-2.686-6-6v-20c0-3.314 2.686-6 6-6h20c3.314 0 6 2.686 6 6v20c0 3.314-2.686 6-6 6z" fill="#ffe6e2"/><path d="m19.167 12h-.5v-1.333c0-1.471-1.196-2.667-2.667-2.667s-2.667 1.196-2.667 2.667v1.333h-.5c-.827 0-1.5.673-1.5 1.5v3.66l.667-.62v-1.373c0-1.013.82-1.833 1.833-1.833.407 0 .78.14 1.087.36.3-.22.673-.36 1.08-.36s.78.14 1.08.36c.307-.22.68-.36 1.087-.36 1.013 0 1.833.82 1.833 1.833v1.373l.667.62v-3.66c0-.827-.673-1.5-1.5-1.5zm-4.5 0v-1.333c0-.735.598-1.333 1.333-1.333s1.333.598 1.333 1.333v1.333z" fill="#fc573b"/><g fill="#fd907e"><path d="m16.5 21.433v-6.266c0-.276-.224-.5-.5-.5s-.5.224-.5.5v6.266c-.488.198-.833.676-.833 1.234 0 .735.598 1.333 1.333 1.333s1.333-.598 1.333-1.333c0-.559-.345-1.036-.833-1.234z"/><path d="m21.167 21.433v-1.766c0-.139-.057-.271-.159-.366l-2.341-2.185v-1.95c0-.276-.224-.5-.5-.5s-.5.224-.5.5v2.167c0 .139.057.271.159.366l2.341 2.185v1.549c-.488.198-.833.676-.833 1.234 0 .735.598 1.333 1.333 1.333s1.333-.598 1.333-1.333c0-.559-.345-1.036-.833-1.234z"/><path d="m13.833 14.667c-.276 0-.5.224-.5.5v1.95l-2.341 2.185c-.102.095-.159.227-.159.366v1.766c-.488.197-.833.674-.833 1.233 0 .735.598 1.333 1.333 1.333s1.333-.598 1.333-1.333c0-.558-.346-1.036-.833-1.234v-1.549l2.341-2.185c.102-.095.159-.227.159-.366v-2.167c0-.275-.224-.499-.5-.499z"/></g></svg>