<svg id="bold" enable-background="new 0 0 32 32" height="512" viewBox="0 0 32 32" width="512" xmlns="http://www.w3.org/2000/svg"><path d="m26 32h-20c-3.314 0-6-2.686-6-6v-20c0-3.314 2.686-6 6-6h20c3.314 0 6 2.686 6 6v20c0 3.314-2.686 6-6 6z" fill="#fff9dd"/><path d="m16 22c-.682 0-1.324-.268-1.808-.755-.195-.196-.194-.512.002-.707s.512-.194.707.002c.59.593 1.608.593 2.198 0 .195-.196.511-.197.707-.002s.197.511.002.707c-.484.487-1.126.755-1.808.755z" fill="#ffe777"/><path d="m16 24c-1.142 0-2.215-.447-3.022-1.259-.195-.196-.193-.512.003-.707.196-.194.513-.194.707.003.617.621 1.438.963 2.312.963s1.695-.342 2.312-.964c.194-.196.511-.197.707-.003.196.195.197.511.003.707-.807.813-1.88 1.26-3.022 1.26z" fill="#ffe777"/><path d="m22.834 10h-3.167c-.099 0-.195.029-.277.084l-1.39.926v-1.01c0-1.103-.897-2-2-2s-2 .897-2 2v1.007l-1.373-.922c-.083-.055-.18-.085-.279-.085h-3.182c-.643 0-1.166.523-1.166 1.167v3c0 .643.523 1.167 1.167 1.167h3.167c.099 0 .195-.029.277-.084l1.389-.927v1.642c-.717.5-1.223 1.255-1.33 2.142-.017.142.027.285.122.392s.231.168.374.168h2.167v.667c0 .368.299.666.667.666s.667-.299.667-.667v-.667h2.167c.143 0 .279-.061.374-.168s.14-.25.122-.392c-.107-.887-.613-1.641-1.33-2.142v-1.639l1.373.922c.082.055.179.085.279.085h3.181c.643 0 1.167-.523 1.167-1.167v-3c0-.642-.523-1.165-1.166-1.165z" fill="#ffd200"/></svg>