<svg id="bold" enable-background="new 0 0 32 32" height="512" viewBox="0 0 32 32" width="512" xmlns="http://www.w3.org/2000/svg"><path d="m26 32h-20c-3.314 0-6-2.686-6-6v-20c0-3.314 2.686-6 6-6h20c3.314 0 6 2.686 6 6v20c0 3.314-2.686 6-6 6z" fill="#e3f8fa"/><path d="m17.167 12.667h-.5v-1.333c0-1.839-1.496-3.334-3.334-3.334s-3.333 1.495-3.333 3.333v1.333h-.5c-.827 0-1.5.673-1.5 1.5v5.667c0 .827.673 1.5 1.5 1.5h5.62c-.293-.607-.453-1.287-.453-2 0-2.347 1.74-4.293 4-4.613v-.553c0-.827-.674-1.5-1.5-1.5zm-5.834 0v-1.333c0-1.103.897-2 2-2s2 .897 2 2v1.333z" fill="#26c6da"/><path d="m23.805 22.862-1.693-1.693c.349-.527.555-1.157.555-1.835 0-1.838-1.496-3.333-3.333-3.333s-3.334 1.494-3.334 3.332 1.496 3.333 3.333 3.333c.678 0 1.308-.206 1.835-.555l1.693 1.693c.26.26.682.26.943 0 .262-.26.262-.682.001-.942zm-4.472-1.529c-1.103 0-2-.897-2-2s.897-2 2-2 2 .897 2 2c.001 1.103-.897 2-2 2z" fill="#8ce1eb"/></svg>