<svg id="bold" enable-background="new 0 0 32 32" height="512" viewBox="0 0 32 32" width="512" xmlns="http://www.w3.org/2000/svg"><path d="m26 32h-20c-3.314 0-6-2.686-6-6v-20c0-3.314 2.686-6 6-6h20c3.314 0 6 2.686 6 6v20c0 3.314-2.686 6-6 6z" fill="#fff9dd"/><path d="m17.167 12.667h-.5v-1.333c0-1.839-1.496-3.334-3.334-3.334s-3.333 1.495-3.333 3.333v1.333h-.5c-.827 0-1.5.673-1.5 1.5v5.667c0 .827.673 1.5 1.5 1.5h6.194c-.227-.393-.36-.847-.36-1.333 0-1.473 1.193-2.667 2.667-2.667.233 0 .453.04.667.1v-3.267c-.001-.826-.675-1.499-1.501-1.499zm-5.834 0v-1.333c0-1.103.897-2 2-2s2 .897 2 2v1.333z" fill="#ffd200"/><path d="m22.667 21.333c-.31 0-.592.111-.819.289l-2.534-1.43c.009-.064.02-.127.02-.193 0-.061-.01-.119-.018-.178l2.533-1.444c.227.178.508.288.818.288.735 0 1.333-.598 1.333-1.333s-.598-1.332-1.333-1.332-1.333.598-1.333 1.333c0 .061.01.119.018.178l-2.533 1.444c-.227-.178-.508-.288-.818-.288-.735 0-1.333.598-1.333 1.333s.598 1.333 1.333 1.333c.304 0 .582-.106.806-.279l2.545 1.436c-.008.058-.018.116-.018.176 0 .735.598 1.333 1.333 1.333s1.333-.597 1.333-1.332-.598-1.334-1.333-1.334z" fill="#ffe777"/></svg>