<svg id="bold" enable-background="new 0 0 32 32" height="512" viewBox="0 0 32 32" width="512" xmlns="http://www.w3.org/2000/svg"><path d="m26 32h-20c-3.314 0-6-2.686-6-6v-20c0-3.314 2.686-6 6-6h20c3.314 0 6 2.686 6 6v20c0 3.314-2.686 6-6 6z" fill="#ffe6e2"/><path d="m19.667 15.333c-2.389 0-4.334 1.944-4.334 4.333s1.944 4.334 4.334 4.334 4.333-1.944 4.333-4.333-1.944-4.334-4.333-4.334zm2.87 2.667h-1.203v-1.203c.499.291.911.704 1.203 1.203zm.463 1.667c0 .228-.023.451-.067.667h-1.599v-1.334h1.599c.044.216.067.438.067.667zm-6.667 0c0-.228.023-.451.067-.667h1.6v1.333h-1.599c-.044-.215-.068-.438-.068-.666zm2.667-.667h1.333v1.333h-1.333zm1.334-2.599v1.599h-1.334v-1.599c.216-.044.438-.067.667-.067s.451.023.667.067zm-2.334.396v1.203h-1.203c.291-.499.704-.912 1.203-1.203zm-1.203 4.536h1.203v1.203c-.499-.291-.912-.703-1.203-1.203zm2.203 1.6v-1.599h1.333v1.599c-.215.044-.438.067-.666.067s-.451-.023-.667-.067zm2.334-.397v-1.203h1.203c-.292.5-.704.912-1.203 1.203z" fill="#fd907e"/><path d="m18.667 14.093c-.04-.793-.7-1.427-1.5-1.427h-.5v-1.333c0-1.838-1.496-3.333-3.334-3.333s-3.333 1.495-3.333 3.333v1.333h-.5c-.827 0-1.5.673-1.5 1.5v5.667c0 .827.673 1.5 1.5 1.5h4.747c-.16-.526-.247-1.086-.247-1.666 0-2.787 2.013-5.107 4.667-5.574zm-7.334-1.426v-1.333c0-1.103.897-2 2-2s2 .897 2 2v1.333z" fill="#fc573b"/></svg>