<svg id="bold" enable-background="new 0 0 32 32" height="512" viewBox="0 0 32 32" width="512" xmlns="http://www.w3.org/2000/svg"><path d="m26 32h-20c-3.314 0-6-2.686-6-6v-20c0-3.314 2.686-6 6-6h20c3.314 0 6 2.686 6 6v20c0 3.314-2.686 6-6 6z" fill="#f5e6fe"/><path d="m17.167 12.667h-.5v-1.333c0-1.839-1.496-3.334-3.334-3.334s-3.333 1.495-3.333 3.333v1.333h-.5c-.827 0-1.5.673-1.5 1.5v5.667c0 .827.673 1.5 1.5 1.5h5.687c-.327-.353-.52-.82-.52-1.333 0-.52.213-1.033.58-1.407l3.42-3.353v-1.073c0-.827-.674-1.5-1.5-1.5zm-5.834 0v-1.333c0-1.103.897-2 2-2s2 .897 2 2v1.333z" fill="#be63f9"/><path d="m22.167 24h-4.334c-.276 0-.5-.224-.5-.5v-2.84h-.673c-.364 0-.66-.296-.66-.66 0-.173.07-.343.192-.466l3.458-3.391c.194-.191.506-.191.7 0l3.452 3.385c.128.129.198.299.198.472 0 .364-.296.66-.66.66h-.674v2.84c.001.276-.223.5-.499.5zm.93-3.763h.007z" fill="#d9a4fc"/></svg>