<svg id="bold" enable-background="new 0 0 32 32" height="512" viewBox="0 0 32 32" width="512" xmlns="http://www.w3.org/2000/svg"><path d="m26 32h-20c-3.314 0-6-2.686-6-6v-20c0-3.314 2.686-6 6-6h20c3.314 0 6 2.686 6 6v20c0 3.314-2.686 6-6 6z" fill="#f5e6fe"/><path d="m17.167 12.667h-.5v-1.333c0-1.839-1.496-3.334-3.334-3.334s-3.333 1.495-3.333 3.333v1.333h-.5c-.827 0-1.5.673-1.5 1.5v5.667c0 .827.673 1.5 1.5 1.5h7.667c.827 0 1.5-.673 1.5-1.5v-5.667c0-.826-.673-1.499-1.5-1.499zm-5.834-1.334c0-1.103.897-2 2-2s2 .897 2 2v1.333h-4z" fill="#be63f9"/><g fill="#d9a4fc"><path d="m21.334 20.667c-.735 0-1.333-.598-1.333-1.333s.597-1.334 1.333-1.334c.735 0 1.333.598 1.333 1.333s-.598 1.334-1.333 1.334z"/><path d="m23.5 24h-4.334c-.276 0-.5-.224-.5-.5v-.333c0-1.011.822-1.833 1.833-1.833h1.667c1.011 0 1.833.822 1.833 1.833v.333c.001.276-.223.5-.499.5z"/></g></svg>