<svg id="bold" enable-background="new 0 0 32 32" height="512" viewBox="0 0 32 32" width="512" xmlns="http://www.w3.org/2000/svg"><path d="m26 32h-20c-3.314 0-6-2.686-6-6v-20c0-3.314 2.686-6 6-6h20c3.314 0 6 2.686 6 6v20c0 3.314-2.686 6-6 6z" fill="#e3f8fa"/><path d="m17.167 12.667h-.5v-1.333c0-1.839-1.496-3.334-3.334-3.334s-3.333 1.495-3.333 3.333v1.333h-.5c-.827 0-1.5.673-1.5 1.5v5.667c0 .827.673 1.5 1.5 1.5h4.5v-2.833c0-1.013.82-1.833 1.833-1.833h2.833v-2.5c.001-.827-.673-1.5-1.499-1.5zm-5.834 0v-1.333c0-1.103.897-2 2-2s2 .897 2 2v1.333z" fill="#26c6da"/><g fill="#8ce1eb"><path d="m20.334 22h3.666v1.5c0 .276-.224.5-.5.5h-3.167v-2z"/><path d="m17.333 21.333h-2v-2.833c0-.276.224-.5.5-.5h1.5z"/><path d="m22 18h1.5c.276 0 .5.224.5.5v2.833h-2z"/><path d="m18.667 18h2v3.333h-2z"/><path d="m19 24h-3.167c-.276 0-.5-.224-.5-.5v-1.5h3.667z"/></g></svg>