<svg id="bold" enable-background="new 0 0 32 32" height="512" viewBox="0 0 32 32" width="512" xmlns="http://www.w3.org/2000/svg"><path d="m26 32h-20c-3.314 0-6-2.686-6-6v-20c0-3.314 2.686-6 6-6h20c3.314 0 6 2.686 6 6v20c0 3.314-2.686 6-6 6z" fill="#ffe6e2"/><path d="m17.167 12.667h-.5v-1.333c0-1.839-1.496-3.334-3.334-3.334s-3.333 1.495-3.333 3.333v1.333h-.5c-.827 0-1.5.673-1.5 1.5v5.667c0 .827.673 1.5 1.5 1.5h5.754c-.033-.02-.067-.06-.1-.093-.347-.4-.52-.92-.48-1.453s.28-1.02.687-1.367c.947-.82 2.093-1.373 3.307-1.62v-2.633c-.001-.827-.675-1.5-1.501-1.5zm-5.834 0v-1.333c0-1.103.897-2 2-2s2 .897 2 2v1.333z" fill="#fc573b"/><g fill="#fd907e"><ellipse cx="20" cy="23.333" rx=".667" ry=".667" transform="matrix(1 -.015 .015 1 -.344 .299)"/><path d="m18.027 22.526c-.167 0-.335-.063-.464-.188-.264-.257-.271-.679-.014-.943.65-.671 1.522-1.048 2.455-1.062.929-.004 1.814.337 2.484.988.264.257.271.679.014.943-.257.265-.679.271-.943.014-.415-.403-.971-.641-1.537-.612-.576.008-1.115.242-1.517.657-.13.135-.304.203-.478.203z"/><path d="m16.667 20.6c-.187 0-.372-.078-.505-.231-.241-.278-.21-.7.068-.94 1.041-.9 2.369-1.408 3.739-1.429 1.38-.01 2.728.452 3.79 1.334.283.235.322.655.087.939-.236.283-.656.323-.939.087-.817-.678-1.846-1.036-2.917-1.026-1.057.016-2.083.409-2.888 1.104-.125.109-.28.162-.435.162z"/></g></svg>