<svg id="bold" enable-background="new 0 0 32 32" height="512" viewBox="0 0 32 32" width="512" xmlns="http://www.w3.org/2000/svg"><path d="m26 32h-20c-3.314 0-6-2.686-6-6v-20c0-3.314 2.686-6 6-6h20c3.314 0 6 2.686 6 6v20c0 3.314-2.686 6-6 6z" fill="#e3f8fa"/><path d="m20.5 14h-.5v-2c0-2.206-1.794-4-4-4s-4 1.794-4 4v2h-.5c-.827 0-1.5.673-1.5 1.5v7c0 .827.673 1.5 1.5 1.5h9c.827 0 1.5-.673 1.5-1.5v-7c0-.827-.673-1.5-1.5-1.5zm-7.167-2c0-1.47 1.196-2.667 2.667-2.667s2.667 1.197 2.667 2.667v2h-5.334zm2.667 10c-.368 0-.667-.298-.667-.667 0-.368.298-.667.667-.667s.667.298.667.667-.299.667-.667.667zm1.767-2.227c-.098.098-.226.146-.354.146s-.256-.049-.354-.146c-.568-.568-1.552-.568-2.12 0-.195.195-.512.195-.707 0s-.195-.512 0-.707c.945-.945 2.589-.945 3.534 0 .196.196.196.512.001.707zm1.18-1.846c-.098.098-.226.146-.354.146s-.256-.049-.354-.146c-.597-.598-1.393-.927-2.239-.927s-1.642.329-2.24.927c-.195.195-.512.195-.707 0s-.195-.512 0-.707c.787-.787 1.833-1.22 2.947-1.22s2.16.433 2.947 1.22c.195.195.195.511 0 .707z" fill="#26c6da"/></svg>