<svg id="bold" enable-background="new 0 0 32 32" height="512" viewBox="0 0 32 32" width="512" xmlns="http://www.w3.org/2000/svg"><path d="m26 32h-20c-3.314 0-6-2.686-6-6v-20c0-3.314 2.686-6 6-6h20c3.314 0 6 2.686 6 6v20c0 3.314-2.686 6-6 6z" fill="#f5e6fe"/><path d="m23.661 13.217-3.5-1.19c-.104-.036-.217-.036-.322 0l-3.5 1.19c-.203.069-.339.259-.339.473v2.679c0 3.27 3.649 4.858 3.805 4.925.063.026.129.04.195.04s.133-.013.195-.04c.156-.066 3.805-1.655 3.805-4.925v-2.679c0-.214-.136-.404-.339-.473zm-1.47 2.528-1.833 2.333c-.112.143-.278.234-.459.252-.021.002-.044.003-.065.003-.158 0-.313-.056-.434-.16l-1.167-1c-.28-.24-.313-.66-.072-.94.24-.279.661-.312.94-.072l.639.547 1.404-1.786c.227-.289.646-.34.936-.112.288.226.339.646.111.935z" fill="#d9a4fc"/><path d="m18.667 11.02v-1.02c0-1.1-.9-2-2-2h-6.667c-1.1 0-2 .9-2 2v12c0 1.1.9 2 2 2h6.667c1.027 0 1.88-.787 1.987-1.787-.42-.22-.873-.513-1.32-.873v.66c0 .367-.3.667-.667.667h-6.667c-.367 0-.667-.3-.667-.667v-12c0-.367.3-.667.667-.667h.333c.367 0 .667.3.667.667s.3.667.667.667h3.333c.367 0 .667-.3.667-.667s.3-.667.667-.667h.333c.367 0 .667.3.667.667v1.473z" fill="#be63f9"/></svg>