<svg id="bold" enable-background="new 0 0 32 32" height="512" viewBox="0 0 32 32" width="512" xmlns="http://www.w3.org/2000/svg"><path d="m26 32h-20c-3.314 0-6-2.686-6-6v-20c0-3.314 2.686-6 6-6h20c3.314 0 6 2.686 6 6v20c0 3.314-2.686 6-6 6z" fill="#fff9dd"/><path d="m21.334 10c0-1.103-.897-2-2-2h-6.667c-1.103 0-2 .897-2 2v12c0 1.103.897 2 2 2h6.667c1.103 0 2-.897 2-2zm-1.334 12c0 .368-.298.667-.667.667h-6.667c-.368 0-.666-.299-.666-.667v-12c0-.368.298-.667.667-.667h.333c.368 0 .667.298.667.667 0 .368.298.667.667.667h3.333c.368 0 .667-.298.667-.667 0-.368.298-.667.667-.667h.333c.368 0 .666.299.666.667z" fill="#ffd200"/><g fill="#ffe777"><path d="m13.167 16c-.276 0-.5-.224-.5-.5v-1c0-.643.523-1.167 1.167-1.167h1c.276 0 .5.224.5.5s-.224.5-.5.5h-1c-.092 0-.167.075-.167.167v1c0 .276-.224.5-.5.5z"/><path d="m18.833 16c-.276 0-.5-.224-.5-.5v-1c0-.092-.075-.167-.167-.167h-1c-.276 0-.5-.224-.5-.5s.224-.5.5-.5h1c.643 0 1.167.523 1.167 1.167v1c0 .276-.223.5-.5.5z"/><path d="m14.833 20h-1c-.643 0-1.167-.523-1.167-1.167v-1c0-.276.224-.5.5-.5s.5.224.5.5v1c0 .092.075.167.167.167h1c.276 0 .5.224.5.5s-.224.5-.5.5z"/><path d="m18.167 20h-1c-.276 0-.5-.224-.5-.5s.224-.5.5-.5h1c.092 0 .167-.075.167-.167v-1c0-.276.224-.5.5-.5s.5.224.5.5v1c-.001.644-.524 1.167-1.167 1.167z"/></g></svg>