<svg id="bold" enable-background="new 0 0 32 32" height="512" viewBox="0 0 32 32" width="512" xmlns="http://www.w3.org/2000/svg"><path d="m26 32h-20c-3.314 0-6-2.686-6-6v-20c0-3.314 2.686-6 6-6h20c3.314 0 6 2.686 6 6v20c0 3.314-2.686 6-6 6z" fill="#fff9dd"/><path d="m21.5 15.333h-.167v-1c0-.919-.747-1.667-1.667-1.667-.919 0-1.667.748-1.667 1.667v1h-.167c-.643 0-1.167.523-1.167 1.167v2.333c0 .643.523 1.167 1.167 1.167h3.668c.643 0 1.167-.523 1.167-1.167v-2.333c0-.643-.523-1.167-1.167-1.167zm-2.5-1c0-.368.299-.667.667-.667s.667.299.667.667v1h-1.334z" fill="#ffe777"/><path d="m18.667 21.333v.667c0 .368-.298.667-.667.667h-6.667c-.368 0-.667-.298-.667-.667v-12c0-.368.298-.667.667-.667h.333c.368 0 .667.298.667.667 0 .368.298.667.667.667h3.333c.369 0 .667-.299.667-.667s.298-.667.667-.667h.333c.368 0 .667.298.667.667v1.333h1.333v-1.333c0-1.103-.897-2-2-2h-6.667c-1.103 0-2 .897-2 2v12c0 1.103.897 2 2 2h6.667c1.103 0 2-.897 2-2v-.667z" fill="#ffd200"/></svg>