<svg id="bold" enable-background="new 0 0 32 32" height="512" viewBox="0 0 32 32" width="512" xmlns="http://www.w3.org/2000/svg"><path d="m26 32h-20c-3.314 0-6-2.686-6-6v-20c0-3.314 2.686-6 6-6h20c3.314 0 6 2.686 6 6v20c0 3.314-2.686 6-6 6z" fill="#ffe6e2"/><path d="m23.661 12.55-3.5-1.19c-.104-.036-.217-.036-.322 0l-3.5 1.19c-.203.069-.339.26-.339.474v2.679c0 3.27 3.649 4.858 3.805 4.925.063.026.129.04.195.04s.133-.013.195-.04c.156-.067 3.805-1.656 3.805-4.926v-2.679c0-.213-.136-.404-.339-.473zm-1.47 2.528-1.833 2.333c-.112.143-.278.234-.459.252-.021.002-.044.003-.065.003-.158 0-.313-.056-.434-.16l-1.167-1c-.28-.24-.313-.66-.072-.94.24-.279.661-.312.94-.072l.639.547 1.404-1.786c.227-.289.646-.34.936-.112.288.227.339.646.111.935z" fill="#fd907e"/><g fill="#fc573b"><path d="m16 22h-6c-.153 0-.313-.013-.46-.04l.127 1.58c.02.26.24.46.5.46h5.667c.26 0 .48-.2.5-.46l.127-1.58c-.148.027-.308.04-.461.04z"/><path d="m17 20.4c-.293.167-.633.267-1 .267h-6c-1.107 0-2-.893-2-2v-5.333c0-1.107.893-2 2-2h5.807c-.687.273-1.14.947-1.14 1.693v2.673c0 2.033 1.086 3.613 2.333 4.7z"/><path d="m16.333 8.46c-.02-.26-.24-.46-.5-.46h-5.667c-.26 0-.48.2-.5.46l-.126 1.58c.146-.027.306-.04.46-.04h6c.153 0 .313.013.46.04z"/></g></svg>