<svg id="bold" enable-background="new 0 0 32 32" height="512" viewBox="0 0 32 32" width="512" xmlns="http://www.w3.org/2000/svg"><path d="m26 32h-20c-3.314 0-6-2.686-6-6v-20c0-3.314 2.686-6 6-6h20c3.314 0 6 2.686 6 6v20c0 3.314-2.686 6-6 6z" fill="#fff9dd"/><path d="m21.334 10c0-1.103-.897-2-2-2h-6.667c-1.103 0-2 .897-2 2v12c0 1.103.897 2 2 2h6.667c1.103 0 2-.897 2-2zm-1.334 12c0 .368-.298.667-.667.667h-6.667c-.368 0-.666-.299-.666-.667v-12c0-.368.298-.667.667-.667h.333c.368 0 .667.298.667.667 0 .368.298.667.667.667h3.333c.368 0 .667-.298.667-.667 0-.368.298-.667.667-.667h.333c.368 0 .666.299.666.667z" fill="#ffd200"/><g fill="#ffe777"><path d="m17.167 20.667c-.276 0-.5-.224-.5-.5v-3.5c0-.368-.299-.667-.667-.667s-.667.299-.667.667v3.5c0 .276-.224.5-.5.5s-.5-.224-.5-.5v-3.5c0-.92.748-1.667 1.667-1.667s1.667.747 1.667 1.667v3.5c0 .276-.224.5-.5.5z"/><path d="m18.833 19.5c-.276 0-.5-.224-.5-.5v-2.333c0-1.286-1.047-2.333-2.333-2.333s-2.333 1.047-2.333 2.333v2.333c0 .276-.224.5-.5.5s-.5-.224-.5-.5v-2.333c0-1.838 1.496-3.333 3.333-3.333s3.333 1.495 3.333 3.333v2.333c0 .276-.223.5-.5.5z"/></g></svg>