<svg id="bold" enable-background="new 0 0 32 32" height="512" viewBox="0 0 32 32" width="512" xmlns="http://www.w3.org/2000/svg"><path d="m26 32h-20c-3.314 0-6-2.686-6-6v-20c0-3.314 2.686-6 6-6h20c3.314 0 6 2.686 6 6v20c0 3.314-2.686 6-6 6z" fill="#f5e6fe"/><path d="m21 24h-10c-.552 0-1-.448-1-1v-.667c0-.552.448-1 1-1h10c.552 0 1 .448 1 1v.667c0 .552-.447 1-1 1z" fill="#be63f9"/><path d="m21 20h-10c-.552 0-1-.448-1-1v-.667c0-.552.448-1 1-1h10c.552 0 1 .448 1 1v.667c0 .552-.447 1-1 1z" fill="#d9a4fc"/><path d="m21 13.333h-7v-2c0-1.103.897-2 2-2 .53 0 1.034.209 1.406.575.134.14.242.281.321.421.182.32.588.433.909.251.32-.182.433-.589.251-.909-.133-.235-.308-.466-.532-.699-.636-.627-1.472-.972-2.355-.972-1.838 0-3.333 1.495-3.333 3.333v2h-1.667c-.552 0-1 .448-1 1v.667c0 .552.448 1 1 1h10c.552 0 1-.448 1-1v-.667c0-.552-.447-1-1-1z" fill="#be63f9"/></svg>