<svg id="bold" enable-background="new 0 0 32 32" height="512" viewBox="0 0 32 32" width="512" xmlns="http://www.w3.org/2000/svg"><path d="m26 32h-20c-3.314 0-6-2.686-6-6v-20c0-3.314 2.686-6 6-6h20c3.314 0 6 2.686 6 6v20c0 3.314-2.686 6-6 6z" fill="#ffe6e2"/><path d="m18.833 11.333h-.167v-2.166c.001-.644-.523-1.167-1.166-1.167h-3c-.643 0-1.167.523-1.167 1.167v2.167h-.167c-1.011 0-1.833.822-1.833 1.833v6.167c0 2.573 2.094 4.666 4.667 4.666s4.667-2.093 4.667-4.667v-6.167c0-1.01-.822-1.833-1.834-1.833zm-3.5-1.333c0-.368.298-.667.667-.667s.667.299.667.667v1.333h-1.333v-1.333zm1.334 10.667c0 .368-.298.667-.667.667s-.667-.299-.667-.667v-4c0-.368.298-.667.667-.667s.667.299.667.667z" fill="#fc573b"/></svg>