<svg id="bold" enable-background="new 0 0 32 32" height="512" viewBox="0 0 32 32" width="512" xmlns="http://www.w3.org/2000/svg"><path d="m26 32h-20c-3.314 0-6-2.686-6-6v-20c0-3.314 2.686-6 6-6h20c3.314 0 6 2.686 6 6v20c0 3.314-2.686 6-6 6z" fill="#e3f8fa"/><path d="m22.834 19.333h-.167v-1c0-.919-.748-1.667-1.667-1.667s-1.667.747-1.667 1.667v1h-.167c-.642 0-1.166.524-1.166 1.167v2.333c0 .644.524 1.167 1.167 1.167h3.667c.643 0 1.166-.523 1.166-1.167v-2.333c0-.643-.523-1.167-1.166-1.167zm-2.5-1c0-.368.299-.667.667-.667s.667.299.667.667v1h-1.333v-1z" fill="#8ce1eb"/><path d="m16.667 22.833v-2.333c0-.958.541-1.791 1.334-2.211.024-1.634 1.36-2.956 3-2.956.28 0 .547.051.804.123.118-.473.195-.959.195-1.456 0-3.309-2.692-6-6-6s-6 2.691-6 6.002c0 .413-.117.817-.338 1.169l-1.557 2.472c-.069.108-.105.232-.105.357 0 .374.293.667.667.667h1.333v2c0 .735.598 1.333 1.333 1.333.147 0 .285-.023.39-.061l1.61-.489v2.217c0 .184.149.333.333.333h3.303c-.186-.35-.302-.743-.302-1.167z" fill="#26c6da"/></svg>